<svg width="215" height="46" viewBox="0 0 215 46" fill="none" xmlns="http://www.w3.org/2000/svg">
<rect x="7.89941" y="5.75" width="29.8313" height="29.8313" rx="3.5" stroke="url(#paint0_linear_2306_2626)"/>
<path fill-rule="evenodd" clip-rule="evenodd" d="M4 9.91797C1.79086 9.91797 0 11.7088 0 13.918V36.7492C0 38.9584 1.79087 40.7492 4 40.7492H26.8313C29.0404 40.7492 30.8313 38.9584 30.8313 36.7492V13.918C30.8313 11.7088 29.0404 9.91797 26.8313 9.91797H4ZM1.82051 15.0763C1.82051 13.4194 3.16366 12.0763 4.82051 12.0763H21.5769C22.815 12.0763 23.878 12.8263 24.3362 13.8968H14.7436C13.639 13.8968 12.7436 14.7922 12.7436 15.8968V21.9096C12.7436 23.0142 13.639 23.9096 14.7436 23.9096H24.5769V36.384C24.5769 38.0408 23.2338 39.384 21.5769 39.384H4.82051C3.16366 39.384 1.82051 38.0408 1.82051 36.384V15.0763ZM24.5769 23.9096H26.2179C27.3225 23.9096 28.2179 23.0142 28.2179 21.9096V15.8968C28.2179 14.7922 27.3225 13.8968 26.2179 13.8968H24.3362C24.4911 14.2588 24.5769 14.6575 24.5769 15.0763V23.9096Z" fill="url(#paint1_linear_2306_2626)"/>
<path d="M52.0975 21.9L48.2475 17.049L52.0975 12.209L53.3625 13.21L50.2935 17.049L53.3625 20.899L52.0975 21.9ZM47.8405 21.9L43.9905 17.049L47.8405 12.209L49.1055 13.21L46.0475 17.049L49.1055 20.899L47.8405 21.9ZM56.2959 23V7.16H58.5949V14.552L65.2279 7.16H68.0879L61.0809 14.893L68.6049 23H65.6569L58.5949 15.432V23H56.2959ZM73.5083 23.33C72.6283 23.33 71.8913 23.1687 71.2973 22.846C70.7033 22.516 70.2523 22.0833 69.9443 21.548C69.6436 21.0053 69.4933 20.4113 69.4933 19.766C69.4933 19.1647 69.5996 18.6367 69.8123 18.182C70.0249 17.7273 70.3403 17.3423 70.7583 17.027C71.1763 16.7043 71.6896 16.444 72.2983 16.246C72.8263 16.092 73.4239 15.9563 74.0913 15.839C74.7586 15.7217 75.4589 15.6117 76.1923 15.509C76.9329 15.4063 77.6663 15.3037 78.3923 15.201L77.5563 15.663C77.5709 14.7317 77.3729 14.0423 76.9623 13.595C76.5589 13.1403 75.8623 12.913 74.8723 12.913C74.2489 12.913 73.6769 13.0597 73.1563 13.353C72.6356 13.639 72.2726 14.1157 72.0673 14.783L69.9223 14.123C70.2156 13.1037 70.7729 12.2933 71.5943 11.692C72.4229 11.0907 73.5229 10.79 74.8943 10.79C75.9576 10.79 76.8816 10.9733 77.6663 11.34C78.4583 11.6993 79.0376 12.2713 79.4043 13.056C79.5949 13.4447 79.7123 13.8553 79.7563 14.288C79.8003 14.7207 79.8223 15.1863 79.8223 15.685V23H77.7873V20.283L78.1833 20.635C77.6919 21.5443 77.0649 22.2227 76.3023 22.67C75.5469 23.11 74.6156 23.33 73.5083 23.33ZM73.9153 21.449C74.5679 21.449 75.1289 21.3353 75.5983 21.108C76.0676 20.8733 76.4453 20.5763 76.7313 20.217C77.0173 19.8577 77.2043 19.4837 77.2923 19.095C77.4169 18.743 77.4866 18.347 77.5013 17.907C77.5233 17.467 77.5343 17.115 77.5343 16.851L78.2823 17.126C77.5563 17.236 76.8963 17.335 76.3023 17.423C75.7083 17.511 75.1693 17.599 74.6853 17.687C74.2086 17.7677 73.7833 17.8667 73.4093 17.984C73.0939 18.094 72.8116 18.226 72.5623 18.38C72.3203 18.534 72.1259 18.721 71.9793 18.941C71.8399 19.161 71.7703 19.4287 71.7703 19.744C71.7703 20.052 71.8473 20.338 72.0013 20.602C72.1553 20.8587 72.3899 21.064 72.7053 21.218C73.0206 21.372 73.4239 21.449 73.9153 21.449ZM82.6677 23V11.12H84.5927L88.9817 19.832L93.3597 11.12H95.2957V23H93.0737V15.828L89.4987 23H88.4537L84.8787 15.828V23H82.6677ZM98.3728 23V11.12H108.394V23H106.095V13.287H100.672V23H98.3728ZM113.074 28.28L115.373 22.021L115.406 23.869L110.225 11.12H112.623L116.495 20.965H115.791L119.487 11.12H121.819L115.263 28.28H113.074ZM128.194 23.33C126.977 23.33 125.943 23.0587 125.092 22.516C124.242 21.9733 123.589 21.229 123.134 20.283C122.687 19.337 122.46 18.2627 122.452 17.06C122.46 15.8353 122.694 14.7537 123.156 13.815C123.618 12.869 124.278 12.1283 125.136 11.593C125.994 11.0577 127.025 10.79 128.227 10.79C129.525 10.79 130.633 11.1127 131.549 11.758C132.473 12.4033 133.082 13.287 133.375 14.409L131.087 15.069C130.86 14.4017 130.486 13.8847 129.965 13.518C129.452 13.144 128.862 12.957 128.194 12.957C127.439 12.957 126.819 13.1367 126.335 13.496C125.851 13.848 125.492 14.332 125.257 14.948C125.023 15.564 124.902 16.268 124.894 17.06C124.902 18.2847 125.18 19.2747 125.73 20.03C126.288 20.7853 127.109 21.163 128.194 21.163C128.935 21.163 129.533 20.9943 129.987 20.657C130.449 20.3123 130.801 19.821 131.043 19.183L133.375 19.733C132.987 20.8917 132.345 21.7827 131.45 22.406C130.556 23.022 129.47 23.33 128.194 23.33ZM145.102 23.33C143.885 23.33 142.851 23.0587 142 22.516C141.15 21.9733 140.497 21.229 140.042 20.283C139.595 19.337 139.368 18.2627 139.36 17.06C139.368 15.8353 139.602 14.7537 140.064 13.815C140.526 12.869 141.186 12.1283 142.044 11.593C142.902 11.0577 143.933 10.79 145.135 10.79C146.433 10.79 147.541 11.1127 148.457 11.758C149.381 12.4033 149.99 13.287 150.283 14.409L147.995 15.069C147.768 14.4017 147.394 13.8847 146.873 13.518C146.36 13.144 145.77 12.957 145.102 12.957C144.347 12.957 143.727 13.1367 143.243 13.496C142.759 13.848 142.4 14.332 142.165 14.948C141.931 15.564 141.81 16.268 141.802 17.06C141.81 18.2847 142.088 19.2747 142.638 20.03C143.196 20.7853 144.017 21.163 145.102 21.163C145.843 21.163 146.441 20.9943 146.895 20.657C147.357 20.3123 147.709 19.821 147.951 19.183L150.283 19.733C149.895 20.8917 149.253 21.7827 148.358 22.406C147.464 23.022 146.378 23.33 145.102 23.33ZM155.464 23V13.188H151.405V11.12H161.822V13.188H157.763V23H155.464ZM173.921 11.12V23H171.71V14.739L165.77 23H163.9V11.12H166.111V19.216L172.062 11.12H173.921ZM175.895 23V21.053C176.335 21.1337 176.669 21.1227 176.896 21.02C177.131 20.91 177.303 20.712 177.413 20.426C177.53 20.14 177.629 19.7697 177.71 19.315C177.835 18.6477 177.941 17.8887 178.029 17.038C178.124 16.18 178.209 15.2523 178.282 14.255C178.355 13.2577 178.421 12.2127 178.48 11.12H187.016V23H184.706V13.287H180.548C180.504 13.8663 180.453 14.4823 180.394 15.135C180.343 15.7803 180.284 16.422 180.218 17.06C180.152 17.698 180.082 18.2957 180.009 18.853C179.936 19.4103 179.859 19.887 179.778 20.283C179.631 21.075 179.415 21.7057 179.129 22.175C178.85 22.637 178.454 22.934 177.941 23.066C177.428 23.2053 176.746 23.1833 175.895 23ZM190.09 23V11.12H192.4V15.245H194.743C195.08 15.245 195.439 15.2523 195.821 15.267C196.209 15.2817 196.543 15.3183 196.822 15.377C197.46 15.509 198.01 15.729 198.472 16.037C198.941 16.345 199.304 16.7557 199.561 17.269C199.817 17.775 199.946 18.3983 199.946 19.139C199.946 20.173 199.674 20.998 199.132 21.614C198.596 22.2227 197.87 22.6333 196.954 22.846C196.66 22.912 196.312 22.956 195.909 22.978C195.513 22.9927 195.15 23 194.82 23H190.09ZM192.4 21.152H194.952C195.135 21.152 195.344 21.1447 195.579 21.13C195.813 21.1153 196.03 21.0823 196.228 21.031C196.58 20.9283 196.895 20.7193 197.174 20.404C197.452 20.0887 197.592 19.667 197.592 19.139C197.592 18.5963 197.452 18.1637 197.174 17.841C196.902 17.5183 196.558 17.3093 196.14 17.214C195.942 17.1627 195.74 17.1297 195.535 17.115C195.329 17.1003 195.135 17.093 194.952 17.093H192.4V21.152ZM203.49 21.9L202.225 20.899L205.283 17.049L202.225 13.21L203.49 12.209L207.34 17.049L203.49 21.9ZM207.747 21.9L206.471 20.899L209.54 17.049L206.471 13.21L207.747 12.209L211.597 17.049L207.747 21.9Z" fill="url(#paint2_linear_2306_2626)"/>
<path d="M62.0645 42V35.52H62.8505L65.3765 40.824L67.9085 35.52H68.6885V42H67.8365V37.404L65.6585 42H65.1005L62.9225 37.404V42H62.0645ZM73.1093 42.18C72.4773 42.18 71.9293 42.04 71.4653 41.76C71.0053 41.48 70.6473 41.086 70.3913 40.578C70.1353 40.07 70.0073 39.474 70.0073 38.79C70.0073 38.082 70.1333 37.47 70.3853 36.954C70.6373 36.438 70.9913 36.04 71.4473 35.76C71.9073 35.48 72.4493 35.34 73.0733 35.34C73.7133 35.34 74.2593 35.488 74.7113 35.784C75.1633 36.076 75.5053 36.496 75.7373 37.044C75.9693 37.592 76.0753 38.246 76.0553 39.006H75.1553V38.694C75.1393 37.854 74.9573 37.22 74.6093 36.792C74.2653 36.364 73.7613 36.15 73.0973 36.15C72.4013 36.15 71.8673 36.376 71.4953 36.828C71.1273 37.28 70.9433 37.924 70.9433 38.76C70.9433 39.576 71.1273 40.21 71.4953 40.662C71.8673 41.11 72.3933 41.334 73.0733 41.334C73.5373 41.334 73.9413 41.228 74.2853 41.016C74.6333 40.8 74.9073 40.49 75.1073 40.086L75.9293 40.404C75.6733 40.968 75.2953 41.406 74.7953 41.718C74.2993 42.026 73.7373 42.18 73.1093 42.18ZM70.6313 39.006V38.268H75.5813V39.006H70.6313ZM79.9849 42.186C79.3809 42.182 78.8629 42.05 78.4309 41.79C77.9989 41.53 77.6629 41.142 77.4229 40.626C77.1869 40.11 77.0589 39.466 77.0389 38.694C77.0269 38.354 77.0349 37.984 77.0629 37.584C77.0909 37.18 77.1349 36.796 77.1949 36.432C77.2549 36.068 77.3269 35.772 77.4109 35.544C77.5149 35.248 77.6629 34.972 77.8549 34.716C78.0509 34.456 78.2769 34.244 78.5329 34.08C78.7809 33.912 79.0609 33.782 79.3729 33.69C79.6889 33.594 80.0169 33.52 80.3569 33.468C80.7009 33.416 81.0409 33.37 81.3769 33.33C81.7169 33.29 82.0309 33.24 82.3189 33.18L82.4149 33.978C82.1949 34.022 81.9349 34.062 81.6349 34.098C81.3349 34.134 81.0209 34.178 80.6929 34.23C80.3649 34.278 80.0509 34.344 79.7509 34.428C79.4509 34.512 79.1949 34.622 78.9829 34.758C78.6589 34.954 78.4089 35.25 78.2329 35.646C78.0609 36.042 77.9549 36.496 77.9149 37.008C78.1629 36.62 78.4909 36.328 78.8989 36.132C79.3109 35.936 79.7569 35.838 80.2369 35.838C80.8209 35.838 81.3229 35.972 81.7429 36.24C82.1669 36.508 82.4929 36.88 82.7209 37.356C82.9489 37.832 83.0629 38.378 83.0629 38.994C83.0629 39.638 82.9369 40.2 82.6849 40.68C82.4369 41.16 82.0829 41.532 81.6229 41.796C81.1629 42.056 80.6169 42.186 79.9849 42.186ZM80.0509 41.34C80.7309 41.34 81.2469 41.128 81.5989 40.704C81.9549 40.28 82.1329 39.716 82.1329 39.012C82.1329 38.292 81.9489 37.724 81.5809 37.308C81.2169 36.892 80.7029 36.684 80.0389 36.684C79.3749 36.684 78.8649 36.892 78.5089 37.308C78.1529 37.724 77.9749 38.292 77.9749 39.012C77.9749 39.732 78.1529 40.3 78.5089 40.716C78.8649 41.132 79.3789 41.34 80.0509 41.34ZM87.125 42.18C86.493 42.18 85.945 42.04 85.481 41.76C85.021 41.48 84.663 41.086 84.407 40.578C84.151 40.07 84.023 39.474 84.023 38.79C84.023 38.082 84.149 37.47 84.401 36.954C84.653 36.438 85.007 36.04 85.463 35.76C85.923 35.48 86.465 35.34 87.089 35.34C87.729 35.34 88.275 35.488 88.727 35.784C89.179 36.076 89.521 36.496 89.753 37.044C89.985 37.592 90.091 38.246 90.071 39.006H89.171V38.694C89.155 37.854 88.973 37.22 88.625 36.792C88.281 36.364 87.777 36.15 87.113 36.15C86.417 36.15 85.883 36.376 85.511 36.828C85.143 37.28 84.959 37.924 84.959 38.76C84.959 39.576 85.143 40.21 85.511 40.662C85.883 41.11 86.409 41.334 87.089 41.334C87.553 41.334 87.957 41.228 88.301 41.016C88.649 40.8 88.923 40.49 89.123 40.086L89.945 40.404C89.689 40.968 89.311 41.406 88.811 41.718C88.315 42.026 87.753 42.18 87.125 42.18ZM84.647 39.006V38.268H89.597V39.006H84.647ZM90.8025 42V41.226C91.0425 41.27 91.2245 41.26 91.3485 41.196C91.4765 41.128 91.5705 41.016 91.6305 40.86C91.6905 40.7 91.7405 40.502 91.7805 40.266C91.8445 39.874 91.9025 39.442 91.9545 38.97C92.0065 38.498 92.0525 37.978 92.0925 37.41C92.1365 36.838 92.1805 36.208 92.2245 35.52H96.6285V42H95.7525V36.366H93.0405C93.0125 36.79 92.9805 37.212 92.9445 37.632C92.9085 38.052 92.8705 38.456 92.8305 38.844C92.7945 39.228 92.7545 39.582 92.7105 39.906C92.6665 40.23 92.6205 40.51 92.5725 40.746C92.5005 41.102 92.4045 41.386 92.2845 41.598C92.1685 41.81 91.9945 41.95 91.7625 42.018C91.5305 42.086 91.2105 42.08 90.8025 42ZM98.3108 42L98.2988 35.52H99.1868V37.962H100.705C100.893 37.962 101.077 37.966 101.257 37.974C101.441 37.982 101.603 37.998 101.743 38.022C102.063 38.082 102.347 38.188 102.595 38.34C102.847 38.492 103.043 38.702 103.183 38.97C103.327 39.238 103.399 39.574 103.399 39.978C103.399 40.534 103.255 40.972 102.967 41.292C102.683 41.612 102.323 41.82 101.887 41.916C101.723 41.952 101.545 41.976 101.353 41.988C101.161 41.996 100.971 42 100.783 42H98.3108ZM99.1868 41.244H100.747C100.883 41.244 101.035 41.24 101.203 41.232C101.371 41.224 101.519 41.202 101.647 41.166C101.859 41.106 102.051 40.986 102.223 40.806C102.399 40.622 102.487 40.346 102.487 39.978C102.487 39.614 102.403 39.34 102.235 39.156C102.067 38.968 101.843 38.844 101.563 38.784C101.439 38.756 101.305 38.738 101.161 38.73C101.017 38.722 100.879 38.718 100.747 38.718H99.1868V41.244ZM106.637 43.44V41.244C107.005 41.244 107.269 41.126 107.429 40.89C107.589 40.65 107.719 40.268 107.819 39.744C107.887 39.404 107.943 39.038 107.987 38.646C108.031 38.254 108.069 37.806 108.101 37.302C108.133 36.794 108.163 36.2 108.191 35.52H112.475V41.244H113.099V43.44H112.247V42H107.483V43.44H106.637ZM108.131 41.244H111.599V36.276H109.007C108.995 36.58 108.977 36.902 108.953 37.242C108.933 37.582 108.907 37.922 108.875 38.262C108.847 38.602 108.813 38.922 108.773 39.222C108.737 39.518 108.693 39.778 108.641 40.002C108.581 40.29 108.515 40.536 108.443 40.74C108.375 40.944 108.271 41.112 108.131 41.244ZM113.701 42V41.226C113.941 41.27 114.123 41.26 114.247 41.196C114.375 41.128 114.469 41.016 114.529 40.86C114.589 40.7 114.639 40.502 114.679 40.266C114.743 39.874 114.801 39.442 114.853 38.97C114.905 38.498 114.951 37.978 114.991 37.41C115.035 36.838 115.079 36.208 115.123 35.52H119.527V42H118.651V36.366H115.939C115.911 36.79 115.879 37.212 115.843 37.632C115.807 38.052 115.769 38.456 115.729 38.844C115.693 39.228 115.653 39.582 115.609 39.906C115.565 40.23 115.519 40.51 115.471 40.746C115.399 41.102 115.303 41.386 115.183 41.598C115.067 41.81 114.893 41.95 114.661 42.018C114.429 42.086 114.109 42.08 113.701 42ZM125.265 42V39.558H123.753C123.577 39.558 123.395 39.552 123.207 39.54C123.023 39.524 122.851 39.502 122.691 39.474C122.235 39.386 121.847 39.186 121.527 38.874C121.211 38.558 121.053 38.122 121.053 37.566C121.053 37.022 121.201 36.586 121.497 36.258C121.793 35.926 122.151 35.71 122.571 35.61C122.763 35.566 122.957 35.54 123.153 35.532C123.353 35.524 123.525 35.52 123.669 35.52H126.147L126.153 42H125.265ZM120.843 42L122.649 39.282H123.627L121.809 42H120.843ZM123.705 38.802H125.265V36.276H123.705C123.609 36.276 123.475 36.28 123.303 36.288C123.131 36.296 122.969 36.322 122.817 36.366C122.685 36.406 122.553 36.476 122.421 36.576C122.293 36.672 122.185 36.802 122.097 36.966C122.009 37.126 121.965 37.322 121.965 37.554C121.965 37.878 122.053 38.138 122.229 38.334C122.409 38.526 122.633 38.658 122.901 38.73C123.045 38.762 123.189 38.782 123.333 38.79C123.477 38.798 123.601 38.802 123.705 38.802ZM132.944 42.18C132.3 42.18 131.75 42.034 131.294 41.742C130.838 41.45 130.488 41.046 130.244 40.53C130 40.014 129.878 39.422 129.878 38.754C129.878 38.074 130.002 37.478 130.25 36.966C130.498 36.454 130.85 36.056 131.306 35.772C131.766 35.484 132.312 35.34 132.944 35.34C133.592 35.34 134.144 35.486 134.6 35.778C135.06 36.066 135.41 36.468 135.65 36.984C135.894 37.496 136.016 38.086 136.016 38.754C136.016 39.434 135.894 40.032 135.65 40.548C135.406 41.06 135.054 41.46 134.594 41.748C134.134 42.036 133.584 42.18 132.944 42.18ZM132.944 41.334C133.664 41.334 134.2 41.096 134.552 40.62C134.904 40.14 135.08 39.518 135.08 38.754C135.08 37.97 134.902 37.346 134.546 36.882C134.194 36.418 133.66 36.186 132.944 36.186C132.46 36.186 132.06 36.296 131.744 36.516C131.432 36.732 131.198 37.034 131.042 37.422C130.89 37.806 130.814 38.25 130.814 38.754C130.814 39.534 130.994 40.16 131.354 40.632C131.714 41.1 132.244 41.334 132.944 41.334ZM139.938 42.186C139.334 42.182 138.816 42.05 138.384 41.79C137.952 41.53 137.616 41.142 137.376 40.626C137.14 40.11 137.012 39.466 136.992 38.694C136.98 38.354 136.988 37.984 137.016 37.584C137.044 37.18 137.088 36.796 137.148 36.432C137.208 36.068 137.28 35.772 137.364 35.544C137.468 35.248 137.616 34.972 137.808 34.716C138.004 34.456 138.23 34.244 138.486 34.08C138.734 33.912 139.014 33.782 139.326 33.69C139.642 33.594 139.97 33.52 140.31 33.468C140.654 33.416 140.994 33.37 141.33 33.33C141.67 33.29 141.984 33.24 142.272 33.18L142.368 33.978C142.148 34.022 141.888 34.062 141.588 34.098C141.288 34.134 140.974 34.178 140.646 34.23C140.318 34.278 140.004 34.344 139.704 34.428C139.404 34.512 139.148 34.622 138.936 34.758C138.612 34.954 138.362 35.25 138.186 35.646C138.014 36.042 137.908 36.496 137.868 37.008C138.116 36.62 138.444 36.328 138.852 36.132C139.264 35.936 139.71 35.838 140.19 35.838C140.774 35.838 141.276 35.972 141.696 36.24C142.12 36.508 142.446 36.88 142.674 37.356C142.902 37.832 143.016 38.378 143.016 38.994C143.016 39.638 142.89 40.2 142.638 40.68C142.39 41.16 142.036 41.532 141.576 41.796C141.116 42.056 140.57 42.186 139.938 42.186ZM140.004 41.34C140.684 41.34 141.2 41.128 141.552 40.704C141.908 40.28 142.086 39.716 142.086 39.012C142.086 38.292 141.902 37.724 141.534 37.308C141.17 36.892 140.656 36.684 139.992 36.684C139.328 36.684 138.818 36.892 138.462 37.308C138.106 37.724 137.928 38.292 137.928 39.012C137.928 39.732 138.106 40.3 138.462 40.716C138.818 41.132 139.332 41.34 140.004 41.34ZM151.722 43.122V42H144.33V35.52H145.188V41.184H147.618V35.52H148.476V41.184H150.9V35.52H151.758V41.184H152.604V43.122H151.722ZM156.301 42.18C155.669 42.18 155.121 42.04 154.657 41.76C154.197 41.48 153.839 41.086 153.583 40.578C153.327 40.07 153.199 39.474 153.199 38.79C153.199 38.082 153.325 37.47 153.577 36.954C153.829 36.438 154.183 36.04 154.639 35.76C155.099 35.48 155.641 35.34 156.265 35.34C156.905 35.34 157.451 35.488 157.903 35.784C158.355 36.076 158.697 36.496 158.929 37.044C159.161 37.592 159.267 38.246 159.247 39.006H158.347V38.694C158.331 37.854 158.149 37.22 157.801 36.792C157.457 36.364 156.953 36.15 156.289 36.15C155.593 36.15 155.059 36.376 154.687 36.828C154.319 37.28 154.135 37.924 154.135 38.76C154.135 39.576 154.319 40.21 154.687 40.662C155.059 41.11 155.585 41.334 156.265 41.334C156.729 41.334 157.133 41.228 157.477 41.016C157.825 40.8 158.099 40.49 158.299 40.086L159.121 40.404C158.865 40.968 158.487 41.406 157.987 41.718C157.491 42.026 156.929 42.18 156.301 42.18ZM153.823 39.006V38.268H158.773V39.006H153.823ZM159.624 42L162.36 38.76L159.738 35.52H160.734L163.29 38.718V35.52H164.106V38.718L166.662 35.52H167.652L165.03 38.76L167.766 42H166.74L164.106 38.802V42H163.29V38.802L160.65 42H159.624ZM173.871 35.52V42H173.013V36.954L169.461 42H168.717V35.52H169.575V40.524L173.133 35.52H173.871ZM177.313 42V36.336H175.015V35.52H180.493V36.336H178.195V42H177.313ZM186.785 35.52V42H185.927V36.954L182.375 42H181.631V35.52H182.489V40.524L186.047 35.52H186.785ZM191.157 34.752C190.873 34.752 190.613 34.682 190.377 34.542C190.141 34.402 189.953 34.216 189.813 33.984C189.677 33.748 189.609 33.488 189.609 33.204H190.341C190.341 33.428 190.421 33.62 190.581 33.78C190.741 33.94 190.933 34.02 191.157 34.02C191.385 34.02 191.577 33.94 191.733 33.78C191.893 33.62 191.973 33.428 191.973 33.204H192.705C192.705 33.488 192.635 33.748 192.495 33.984C192.359 34.216 192.173 34.402 191.937 34.542C191.701 34.682 191.441 34.752 191.157 34.752ZM193.617 35.52V42H192.759V36.954L189.207 42H188.463V35.52H189.321V40.524L192.879 35.52H193.617Z" fill="white"/>
<defs>
<linearGradient id="paint0_linear_2306_2626" x1="7.39941" y1="27.1691" x2="38.357" y2="26.842" gradientUnits="userSpaceOnUse">
<stop stop-color="#F76F02"/>
<stop offset="1" stop-color="#FD8132"/>
</linearGradient>
<linearGradient id="paint1_linear_2306_2626" x1="-2.18473e-08" y1="31.8371" x2="30.9576" y2="31.51" gradientUnits="userSpaceOnUse">
<stop stop-color="#FF6408"/>
<stop offset="1" stop-color="#FF8F3B"/>
</linearGradient>
<linearGradient id="paint2_linear_2306_2626" x1="42.2305" y1="21.3281" x2="214.323" y2="10.9024" gradientUnits="userSpaceOnUse">
<stop stop-color="#FF6408"/>
<stop offset="1" stop-color="#FF8F3B"/>
</linearGradient>
</defs>
</svg>
