<svg width="208" height="42" viewBox="0 0 208 42" fill="none" xmlns="http://www.w3.org/2000/svg">
<rect x="8.39941" y="3.75" width="29.8313" height="29.8313" rx="3.5" stroke="url(#paint0_linear_157_725)"/>
<path fill-rule="evenodd" clip-rule="evenodd" d="M4.5 7.91846C2.29086 7.91846 0.5 9.70932 0.5 11.9185V34.7497C0.5 36.9589 2.29087 38.7497 4.5 38.7497H27.3313C29.5404 38.7497 31.3313 36.9589 31.3313 34.7497V11.9185C31.3313 9.70932 29.5404 7.91846 27.3313 7.91846H4.5ZM2.32051 13.0768C2.32051 11.4199 3.66366 10.0768 5.32051 10.0768H22.0769C23.315 10.0768 24.378 10.8268 24.8362 11.8973H15.2436C14.139 11.8973 13.2436 12.7927 13.2436 13.8973V19.9101C13.2436 21.0147 14.139 21.9101 15.2436 21.9101H25.0769V34.3844C25.0769 36.0413 23.7338 37.3845 22.0769 37.3845H5.32051C3.66366 37.3845 2.32051 36.0413 2.32051 34.3845V13.0768ZM25.0769 21.9101H26.7179C27.8225 21.9101 28.7179 21.0147 28.7179 19.9101V13.8973C28.7179 12.7927 27.8225 11.8973 26.7179 11.8973H24.8362C24.9911 12.2593 25.0769 12.658 25.0769 13.0768V21.9101Z" fill="url(#paint1_linear_157_725)"/>
<path d="M52.0697 21.834L48.2637 17.049L52.0697 12.275L53.0487 13.034L49.8477 17.049L53.0487 21.075L52.0697 21.834ZM48.2967 21.834L44.4907 17.049L48.2967 12.275L49.2757 13.034L46.0637 17.049L49.2757 21.075L48.2967 21.834ZM56.0442 23V7.16H57.6612V14.64L64.8882 7.16H66.9562L59.5752 14.805L67.5612 23H65.4492L57.6612 15.08V23H56.0442ZM72.5057 23.33C71.611 23.33 70.8593 23.1687 70.2507 22.846C69.6493 22.5233 69.1983 22.0943 68.8977 21.559C68.597 21.0237 68.4467 20.4407 68.4467 19.81C68.4467 19.1647 68.575 18.6147 68.8317 18.16C69.0957 17.698 69.4513 17.3203 69.8987 17.027C70.3533 16.7337 70.8777 16.51 71.4717 16.356C72.073 16.2093 72.7367 16.081 73.4627 15.971C74.196 15.8537 74.911 15.7547 75.6077 15.674C76.3117 15.586 76.9277 15.5017 77.4557 15.421L76.8837 15.773C76.9057 14.5997 76.6783 13.7307 76.2017 13.166C75.725 12.6013 74.8963 12.319 73.7157 12.319C72.9017 12.319 72.2123 12.5023 71.6477 12.869C71.0903 13.2357 70.698 13.815 70.4707 14.607L68.8977 14.145C69.169 13.0817 69.7153 12.2567 70.5367 11.67C71.358 11.0833 72.425 10.79 73.7377 10.79C74.823 10.79 75.7433 10.9953 76.4987 11.406C77.2613 11.8093 77.8003 12.396 78.1157 13.166C78.2623 13.5107 78.3577 13.8957 78.4017 14.321C78.4457 14.7463 78.4677 15.179 78.4677 15.619V23H77.0267V20.019L77.4447 20.195C77.0413 21.2143 76.4143 21.9917 75.5637 22.527C74.713 23.0623 73.6937 23.33 72.5057 23.33ZM72.6927 21.933C73.448 21.933 74.108 21.7973 74.6727 21.526C75.2373 21.2547 75.692 20.8843 76.0367 20.415C76.3813 19.9383 76.605 19.403 76.7077 18.809C76.7957 18.4277 76.8433 18.0097 76.8507 17.555C76.858 17.093 76.8617 16.7483 76.8617 16.521L77.4777 16.84C76.9277 16.9133 76.33 16.9867 75.6847 17.06C75.0467 17.1333 74.416 17.2177 73.7927 17.313C73.1767 17.4083 72.6193 17.522 72.1207 17.654C71.7833 17.7493 71.457 17.885 71.1417 18.061C70.8263 18.2297 70.566 18.457 70.3607 18.743C70.1627 19.029 70.0637 19.3847 70.0637 19.81C70.0637 20.1547 70.148 20.4883 70.3167 20.811C70.4927 21.1337 70.7713 21.4013 71.1527 21.614C71.5413 21.8267 72.0547 21.933 72.6927 21.933ZM81.3203 23V11.12H82.7613L87.3923 20.844L92.0343 11.12H93.4643V23H91.9023V14.574L87.9093 23H86.8863L82.8933 14.574V23H81.3203ZM96.5312 23V11.12H105.98V23H104.363V12.671H98.1482V23H96.5312ZM110.762 28.28L113.061 22.043L113.094 23.891L107.891 11.12H109.607L113.875 21.801H113.171L117.109 11.12H118.759L112.379 28.28H110.762ZM125.167 23.33C123.972 23.33 122.96 23.0623 122.131 22.527C121.303 21.9917 120.672 21.2547 120.239 20.316C119.814 19.37 119.594 18.2847 119.579 17.06C119.594 15.8133 119.821 14.7207 120.261 13.782C120.701 12.836 121.336 12.1027 122.164 11.582C122.993 11.054 123.998 10.79 125.178 10.79C126.381 10.79 127.426 11.0833 128.313 11.67C129.208 12.2567 129.82 13.0597 130.15 14.079L128.566 14.585C128.288 13.8737 127.844 13.3237 127.235 12.935C126.634 12.539 125.945 12.341 125.167 12.341C124.295 12.341 123.572 12.5427 123 12.946C122.428 13.342 122.003 13.8957 121.724 14.607C121.446 15.3183 121.303 16.136 121.295 17.06C121.31 18.4827 121.64 19.6267 122.285 20.492C122.931 21.35 123.891 21.779 125.167 21.779C125.974 21.779 126.66 21.5957 127.224 21.229C127.796 20.855 128.229 20.3123 128.522 19.601L130.15 20.085C129.71 21.141 129.065 21.9477 128.214 22.505C127.364 23.055 126.348 23.33 125.167 23.33ZM141.753 23.33C140.558 23.33 139.546 23.0623 138.717 22.527C137.889 21.9917 137.258 21.2547 136.825 20.316C136.4 19.37 136.18 18.2847 136.165 17.06C136.18 15.8133 136.407 14.7207 136.847 13.782C137.287 12.836 137.922 12.1027 138.75 11.582C139.579 11.054 140.584 10.79 141.764 10.79C142.967 10.79 144.012 11.0833 144.899 11.67C145.794 12.2567 146.406 13.0597 146.736 14.079L145.152 14.585C144.874 13.8737 144.43 13.3237 143.821 12.935C143.22 12.539 142.531 12.341 141.753 12.341C140.881 12.341 140.158 12.5427 139.586 12.946C139.014 13.342 138.589 13.8957 138.31 14.607C138.032 15.3183 137.889 16.136 137.881 17.06C137.896 18.4827 138.226 19.6267 138.871 20.492C139.517 21.35 140.477 21.779 141.753 21.779C142.56 21.779 143.246 21.5957 143.81 21.229C144.382 20.855 144.815 20.3123 145.108 19.601L146.736 20.085C146.296 21.141 145.651 21.9477 144.8 22.505C143.95 23.055 142.934 23.33 141.753 23.33ZM151.951 23V12.616H147.738V11.12H157.781V12.616H153.568V23H151.951ZM169.316 11.12V23H167.743V13.749L161.231 23H159.867V11.12H161.44V20.294L167.963 11.12H169.316ZM171.304 23V21.581C171.744 21.6617 172.077 21.6433 172.305 21.526C172.539 21.4013 172.712 21.196 172.822 20.91C172.932 20.6167 173.023 20.2537 173.097 19.821C173.214 19.1023 173.32 18.3103 173.416 17.445C173.511 16.5797 173.595 15.6263 173.669 14.585C173.749 13.5363 173.83 12.3813 173.911 11.12H181.985V23H180.379V12.671H175.407C175.355 13.4483 175.297 14.222 175.231 14.992C175.165 15.762 175.095 16.5027 175.022 17.214C174.956 17.918 174.882 18.567 174.802 19.161C174.721 19.755 174.637 20.2683 174.549 20.701C174.417 21.3537 174.241 21.8743 174.021 22.263C173.808 22.6517 173.489 22.9083 173.064 23.033C172.638 23.1577 172.052 23.1467 171.304 23ZM185.069 23L185.047 11.12H186.675V15.597H189.458C189.802 15.597 190.14 15.6043 190.47 15.619C190.807 15.6337 191.104 15.663 191.361 15.707C191.947 15.817 192.468 16.0113 192.923 16.29C193.385 16.5687 193.744 16.9537 194.001 17.445C194.265 17.9363 194.397 18.5523 194.397 19.293C194.397 20.3123 194.133 21.1153 193.605 21.702C193.084 22.2887 192.424 22.67 191.625 22.846C191.324 22.912 190.998 22.956 190.646 22.978C190.294 22.9927 189.945 23 189.601 23H185.069ZM186.675 21.614H189.535C189.784 21.614 190.063 21.6067 190.371 21.592C190.679 21.5773 190.95 21.537 191.185 21.471C191.573 21.361 191.925 21.141 192.241 20.811C192.563 20.4737 192.725 19.9677 192.725 19.293C192.725 18.6257 192.571 18.1233 192.263 17.786C191.955 17.4413 191.544 17.214 191.031 17.104C190.803 17.0527 190.558 17.0197 190.294 17.005C190.03 16.9903 189.777 16.983 189.535 16.983H186.675V21.614ZM197.712 21.834L196.733 21.075L199.945 17.049L196.733 13.034L197.712 12.275L201.518 17.049L197.712 21.834ZM201.485 21.834L200.517 21.075L203.718 17.049L200.517 13.034L201.485 12.275L205.291 17.049L201.485 21.834Z" fill="url(#paint2_linear_157_725)"/>
<path d="M59.0647 39V32.52H59.8507L62.3767 37.824L64.9087 32.52H65.6887V39H64.8367V34.404L62.6587 39H62.1007L59.9227 34.404V39H59.0647ZM70.1096 39.18C69.4776 39.18 68.9296 39.04 68.4656 38.76C68.0056 38.48 67.6476 38.086 67.3916 37.578C67.1356 37.07 67.0076 36.474 67.0076 35.79C67.0076 35.082 67.1336 34.47 67.3856 33.954C67.6376 33.438 67.9916 33.04 68.4476 32.76C68.9076 32.48 69.4496 32.34 70.0736 32.34C70.7136 32.34 71.2596 32.488 71.7116 32.784C72.1636 33.076 72.5056 33.496 72.7376 34.044C72.9696 34.592 73.0756 35.246 73.0556 36.006H72.1556V35.694C72.1396 34.854 71.9576 34.22 71.6096 33.792C71.2656 33.364 70.7616 33.15 70.0976 33.15C69.4016 33.15 68.8676 33.376 68.4956 33.828C68.1276 34.28 67.9436 34.924 67.9436 35.76C67.9436 36.576 68.1276 37.21 68.4956 37.662C68.8676 38.11 69.3936 38.334 70.0736 38.334C70.5376 38.334 70.9416 38.228 71.2856 38.016C71.6336 37.8 71.9076 37.49 72.1076 37.086L72.9296 37.404C72.6736 37.968 72.2956 38.406 71.7956 38.718C71.2996 39.026 70.7376 39.18 70.1096 39.18ZM67.6316 36.006V35.268H72.5816V36.006H67.6316ZM76.9851 39.186C76.3811 39.182 75.8631 39.05 75.4311 38.79C74.9991 38.53 74.6631 38.142 74.4231 37.626C74.1871 37.11 74.0591 36.466 74.0391 35.694C74.0271 35.354 74.0351 34.984 74.0631 34.584C74.0911 34.18 74.1351 33.796 74.1951 33.432C74.2551 33.068 74.3271 32.772 74.4111 32.544C74.5151 32.248 74.6631 31.972 74.8551 31.716C75.0511 31.456 75.2771 31.244 75.5331 31.08C75.7811 30.912 76.0611 30.782 76.3731 30.69C76.6891 30.594 77.0171 30.52 77.3571 30.468C77.7011 30.416 78.0411 30.37 78.3771 30.33C78.7171 30.29 79.0311 30.24 79.3191 30.18L79.4151 30.978C79.1951 31.022 78.9351 31.062 78.6351 31.098C78.3351 31.134 78.0211 31.178 77.6931 31.23C77.3651 31.278 77.0511 31.344 76.7511 31.428C76.4511 31.512 76.1951 31.622 75.9831 31.758C75.6591 31.954 75.4091 32.25 75.2331 32.646C75.0611 33.042 74.9551 33.496 74.9151 34.008C75.1631 33.62 75.4911 33.328 75.8991 33.132C76.3111 32.936 76.7571 32.838 77.2371 32.838C77.8211 32.838 78.3231 32.972 78.7431 33.24C79.1671 33.508 79.4931 33.88 79.7211 34.356C79.9491 34.832 80.0631 35.378 80.0631 35.994C80.0631 36.638 79.9371 37.2 79.6851 37.68C79.4371 38.16 79.0831 38.532 78.6231 38.796C78.1631 39.056 77.6171 39.186 76.9851 39.186ZM77.0511 38.34C77.7311 38.34 78.2471 38.128 78.5991 37.704C78.9551 37.28 79.1331 36.716 79.1331 36.012C79.1331 35.292 78.9491 34.724 78.5811 34.308C78.2171 33.892 77.7031 33.684 77.0391 33.684C76.3751 33.684 75.8651 33.892 75.5091 34.308C75.1531 34.724 74.9751 35.292 74.9751 36.012C74.9751 36.732 75.1531 37.3 75.5091 37.716C75.8651 38.132 76.3791 38.34 77.0511 38.34ZM84.1252 39.18C83.4932 39.18 82.9452 39.04 82.4812 38.76C82.0212 38.48 81.6632 38.086 81.4072 37.578C81.1512 37.07 81.0232 36.474 81.0232 35.79C81.0232 35.082 81.1492 34.47 81.4012 33.954C81.6532 33.438 82.0072 33.04 82.4632 32.76C82.9232 32.48 83.4652 32.34 84.0892 32.34C84.7292 32.34 85.2752 32.488 85.7272 32.784C86.1792 33.076 86.5212 33.496 86.7532 34.044C86.9852 34.592 87.0912 35.246 87.0712 36.006H86.1712V35.694C86.1552 34.854 85.9732 34.22 85.6252 33.792C85.2812 33.364 84.7772 33.15 84.1132 33.15C83.4172 33.15 82.8832 33.376 82.5112 33.828C82.1432 34.28 81.9592 34.924 81.9592 35.76C81.9592 36.576 82.1432 37.21 82.5112 37.662C82.8832 38.11 83.4092 38.334 84.0892 38.334C84.5532 38.334 84.9572 38.228 85.3012 38.016C85.6492 37.8 85.9232 37.49 86.1232 37.086L86.9452 37.404C86.6892 37.968 86.3112 38.406 85.8112 38.718C85.3152 39.026 84.7532 39.18 84.1252 39.18ZM81.6472 36.006V35.268H86.5972V36.006H81.6472ZM87.8027 39V38.226C88.0427 38.27 88.2247 38.26 88.3487 38.196C88.4767 38.128 88.5707 38.016 88.6307 37.86C88.6907 37.7 88.7407 37.502 88.7807 37.266C88.8447 36.874 88.9027 36.442 88.9547 35.97C89.0067 35.498 89.0527 34.978 89.0927 34.41C89.1367 33.838 89.1807 33.208 89.2247 32.52H93.6287V39H92.7527V33.366H90.0407C90.0127 33.79 89.9807 34.212 89.9447 34.632C89.9087 35.052 89.8707 35.456 89.8307 35.844C89.7947 36.228 89.7547 36.582 89.7107 36.906C89.6667 37.23 89.6207 37.51 89.5727 37.746C89.5007 38.102 89.4047 38.386 89.2847 38.598C89.1687 38.81 88.9947 38.95 88.7627 39.018C88.5307 39.086 88.2107 39.08 87.8027 39ZM95.3111 39L95.2991 32.52H96.1871V34.962H97.7051C97.8931 34.962 98.0771 34.966 98.2571 34.974C98.4411 34.982 98.6031 34.998 98.7431 35.022C99.0631 35.082 99.3471 35.188 99.5951 35.34C99.8471 35.492 100.043 35.702 100.183 35.97C100.327 36.238 100.399 36.574 100.399 36.978C100.399 37.534 100.255 37.972 99.9671 38.292C99.6831 38.612 99.3231 38.82 98.8871 38.916C98.7231 38.952 98.5451 38.976 98.3531 38.988C98.1611 38.996 97.9711 39 97.7831 39H95.3111ZM96.1871 38.244H97.7471C97.8831 38.244 98.0351 38.24 98.2031 38.232C98.3711 38.224 98.5191 38.202 98.6471 38.166C98.8591 38.106 99.0511 37.986 99.2231 37.806C99.3991 37.622 99.4871 37.346 99.4871 36.978C99.4871 36.614 99.4031 36.34 99.2351 36.156C99.0671 35.968 98.8431 35.844 98.5631 35.784C98.4391 35.756 98.3051 35.738 98.1611 35.73C98.0171 35.722 97.8791 35.718 97.7471 35.718H96.1871V38.244ZM103.638 40.44V38.244C104.006 38.244 104.27 38.126 104.43 37.89C104.59 37.65 104.72 37.268 104.82 36.744C104.888 36.404 104.944 36.038 104.988 35.646C105.032 35.254 105.07 34.806 105.102 34.302C105.134 33.794 105.164 33.2 105.192 32.52H109.476V38.244H110.1V40.44H109.248V39H104.484V40.44H103.638ZM105.132 38.244H108.6V33.276H106.008C105.996 33.58 105.978 33.902 105.954 34.242C105.934 34.582 105.908 34.922 105.876 35.262C105.848 35.602 105.814 35.922 105.774 36.222C105.738 36.518 105.694 36.778 105.642 37.002C105.582 37.29 105.516 37.536 105.444 37.74C105.376 37.944 105.272 38.112 105.132 38.244ZM110.701 39V38.226C110.941 38.27 111.123 38.26 111.247 38.196C111.375 38.128 111.469 38.016 111.529 37.86C111.589 37.7 111.639 37.502 111.679 37.266C111.743 36.874 111.801 36.442 111.853 35.97C111.905 35.498 111.951 34.978 111.991 34.41C112.035 33.838 112.079 33.208 112.123 32.52H116.527V39H115.651V33.366H112.939C112.911 33.79 112.879 34.212 112.843 34.632C112.807 35.052 112.769 35.456 112.729 35.844C112.693 36.228 112.653 36.582 112.609 36.906C112.565 37.23 112.519 37.51 112.471 37.746C112.399 38.102 112.303 38.386 112.183 38.598C112.067 38.81 111.893 38.95 111.661 39.018C111.429 39.086 111.109 39.08 110.701 39ZM122.266 39V36.558H120.754C120.578 36.558 120.396 36.552 120.208 36.54C120.024 36.524 119.852 36.502 119.692 36.474C119.236 36.386 118.848 36.186 118.528 35.874C118.212 35.558 118.054 35.122 118.054 34.566C118.054 34.022 118.202 33.586 118.498 33.258C118.794 32.926 119.152 32.71 119.572 32.61C119.764 32.566 119.958 32.54 120.154 32.532C120.354 32.524 120.526 32.52 120.67 32.52H123.148L123.154 39H122.266ZM117.844 39L119.65 36.282H120.628L118.81 39H117.844ZM120.706 35.802H122.266V33.276H120.706C120.61 33.276 120.476 33.28 120.304 33.288C120.132 33.296 119.97 33.322 119.818 33.366C119.686 33.406 119.554 33.476 119.422 33.576C119.294 33.672 119.186 33.802 119.098 33.966C119.01 34.126 118.966 34.322 118.966 34.554C118.966 34.878 119.054 35.138 119.23 35.334C119.41 35.526 119.634 35.658 119.902 35.73C120.046 35.762 120.19 35.782 120.334 35.79C120.478 35.798 120.602 35.802 120.706 35.802ZM129.945 39.18C129.301 39.18 128.751 39.034 128.295 38.742C127.839 38.45 127.489 38.046 127.245 37.53C127.001 37.014 126.879 36.422 126.879 35.754C126.879 35.074 127.003 34.478 127.251 33.966C127.499 33.454 127.851 33.056 128.307 32.772C128.767 32.484 129.313 32.34 129.945 32.34C130.593 32.34 131.145 32.486 131.601 32.778C132.061 33.066 132.411 33.468 132.651 33.984C132.895 34.496 133.017 35.086 133.017 35.754C133.017 36.434 132.895 37.032 132.651 37.548C132.407 38.06 132.055 38.46 131.595 38.748C131.135 39.036 130.585 39.18 129.945 39.18ZM129.945 38.334C130.665 38.334 131.201 38.096 131.553 37.62C131.905 37.14 132.081 36.518 132.081 35.754C132.081 34.97 131.903 34.346 131.547 33.882C131.195 33.418 130.661 33.186 129.945 33.186C129.461 33.186 129.061 33.296 128.745 33.516C128.433 33.732 128.199 34.034 128.043 34.422C127.891 34.806 127.815 35.25 127.815 35.754C127.815 36.534 127.995 37.16 128.355 37.632C128.715 38.1 129.245 38.334 129.945 38.334ZM136.938 39.186C136.334 39.182 135.816 39.05 135.384 38.79C134.952 38.53 134.616 38.142 134.376 37.626C134.14 37.11 134.012 36.466 133.992 35.694C133.98 35.354 133.988 34.984 134.016 34.584C134.044 34.18 134.088 33.796 134.148 33.432C134.208 33.068 134.28 32.772 134.364 32.544C134.468 32.248 134.616 31.972 134.808 31.716C135.004 31.456 135.23 31.244 135.486 31.08C135.734 30.912 136.014 30.782 136.326 30.69C136.642 30.594 136.97 30.52 137.31 30.468C137.654 30.416 137.994 30.37 138.33 30.33C138.67 30.29 138.984 30.24 139.272 30.18L139.368 30.978C139.148 31.022 138.888 31.062 138.588 31.098C138.288 31.134 137.974 31.178 137.646 31.23C137.318 31.278 137.004 31.344 136.704 31.428C136.404 31.512 136.148 31.622 135.936 31.758C135.612 31.954 135.362 32.25 135.186 32.646C135.014 33.042 134.908 33.496 134.868 34.008C135.116 33.62 135.444 33.328 135.852 33.132C136.264 32.936 136.71 32.838 137.19 32.838C137.774 32.838 138.276 32.972 138.696 33.24C139.12 33.508 139.446 33.88 139.674 34.356C139.902 34.832 140.016 35.378 140.016 35.994C140.016 36.638 139.89 37.2 139.638 37.68C139.39 38.16 139.036 38.532 138.576 38.796C138.116 39.056 137.57 39.186 136.938 39.186ZM137.004 38.34C137.684 38.34 138.2 38.128 138.552 37.704C138.908 37.28 139.086 36.716 139.086 36.012C139.086 35.292 138.902 34.724 138.534 34.308C138.17 33.892 137.656 33.684 136.992 33.684C136.328 33.684 135.818 33.892 135.462 34.308C135.106 34.724 134.928 35.292 134.928 36.012C134.928 36.732 135.106 37.3 135.462 37.716C135.818 38.132 136.332 38.34 137.004 38.34ZM148.722 40.122V39H141.33V32.52H142.188V38.184H144.618V32.52H145.476V38.184H147.9V32.52H148.758V38.184H149.604V40.122H148.722ZM153.301 39.18C152.669 39.18 152.121 39.04 151.657 38.76C151.197 38.48 150.839 38.086 150.583 37.578C150.327 37.07 150.199 36.474 150.199 35.79C150.199 35.082 150.325 34.47 150.577 33.954C150.829 33.438 151.183 33.04 151.639 32.76C152.099 32.48 152.641 32.34 153.265 32.34C153.905 32.34 154.451 32.488 154.903 32.784C155.355 33.076 155.697 33.496 155.929 34.044C156.161 34.592 156.267 35.246 156.247 36.006H155.347V35.694C155.331 34.854 155.149 34.22 154.801 33.792C154.457 33.364 153.953 33.15 153.289 33.15C152.593 33.15 152.059 33.376 151.687 33.828C151.319 34.28 151.135 34.924 151.135 35.76C151.135 36.576 151.319 37.21 151.687 37.662C152.059 38.11 152.585 38.334 153.265 38.334C153.729 38.334 154.133 38.228 154.477 38.016C154.825 37.8 155.099 37.49 155.299 37.086L156.121 37.404C155.865 37.968 155.487 38.406 154.987 38.718C154.491 39.026 153.929 39.18 153.301 39.18ZM150.823 36.006V35.268H155.773V36.006H150.823ZM156.624 39L159.36 35.76L156.738 32.52H157.734L160.29 35.718V32.52H161.106V35.718L163.662 32.52H164.652L162.03 35.76L164.766 39H163.74L161.106 35.802V39H160.29V35.802L157.65 39H156.624ZM170.871 32.52V39H170.013V33.954L166.461 39H165.717V32.52H166.575V37.524L170.133 32.52H170.871ZM174.313 39V33.336H172.015V32.52H177.493V33.336H175.195V39H174.313ZM183.785 32.52V39H182.927V33.954L179.375 39H178.631V32.52H179.489V37.524L183.047 32.52H183.785ZM188.157 31.752C187.873 31.752 187.613 31.682 187.377 31.542C187.141 31.402 186.953 31.216 186.813 30.984C186.677 30.748 186.609 30.488 186.609 30.204H187.341C187.341 30.428 187.421 30.62 187.581 30.78C187.741 30.94 187.933 31.02 188.157 31.02C188.385 31.02 188.577 30.94 188.733 30.78C188.893 30.62 188.973 30.428 188.973 30.204H189.705C189.705 30.488 189.635 30.748 189.495 30.984C189.359 31.216 189.173 31.402 188.937 31.542C188.701 31.682 188.441 31.752 188.157 31.752ZM190.617 32.52V39H189.759V33.954L186.207 39H185.463V32.52H186.321V37.524L189.879 32.52H190.617Z" fill="#B9B9B9"/>
<defs>
<linearGradient id="paint0_linear_157_725" x1="7.89941" y1="25.1691" x2="38.857" y2="24.842" gradientUnits="userSpaceOnUse">
<stop stop-color="#F76F02"/>
<stop offset="1" stop-color="#FD8132"/>
</linearGradient>
<linearGradient id="paint1_linear_157_725" x1="0.5" y1="29.8376" x2="31.4576" y2="29.5104" gradientUnits="userSpaceOnUse">
<stop stop-color="#FF6408"/>
<stop offset="1" stop-color="#FF8F3B"/>
</linearGradient>
<linearGradient id="paint2_linear_157_725" x1="42.7307" y1="21.3281" x2="207.868" y2="11.731" gradientUnits="userSpaceOnUse">
<stop stop-color="#FF6408"/>
<stop offset="1" stop-color="#FF8F3B"/>
</linearGradient>
</defs>
</svg>
