<svg width="174" height="30" viewBox="0 0 174 30" fill="none" xmlns="http://www.w3.org/2000/svg">
<rect x="6.6166" y="1.16787" width="23.8684" height="23.8684" rx="2.65234" stroke="url(#paint0_linear_157_2018)" stroke-width="1.2"/>
<path fill-rule="evenodd" clip-rule="evenodd" d="M2 4.36377C0.89543 4.36377 0 5.2592 0 6.36377V27.4322C0 28.5368 0.89543 29.4322 2 29.4322H23.0684C24.173 29.4322 25.0684 28.5368 25.0684 27.4322V6.36377C25.0684 5.2592 24.173 4.36377 23.0684 4.36377H2ZM1.48007 8.51866C1.48007 7.19318 2.55458 6.11866 3.88007 6.11866H17.5829C18.5826 6.11866 19.4396 6.72989 19.8004 7.59902H12.7613C11.4358 7.59902 10.3613 8.67354 10.3613 9.99902V13.3403C10.3613 14.6658 11.4358 15.7403 12.7613 15.7403H19.9829V25.9221C19.9829 27.2476 18.9084 28.3221 17.5829 28.3221H3.88007C2.55458 28.3221 1.48007 27.2476 1.48007 25.9221V8.51866ZM19.9829 15.7403H20.5432C21.8687 15.7403 22.9432 14.6658 22.9432 13.3403V9.99902C22.9432 8.67354 21.8687 7.59902 20.5432 7.59902H19.8004C19.918 7.88225 19.9829 8.19288 19.9829 8.51866V15.7403Z" fill="url(#paint1_linear_157_2018)"/>
<path d="M41.3335 15.846L38.6035 12.4062L41.3335 8.97418L42.2305 9.68398L40.0543 12.4062L42.2305 15.1362L41.3335 15.846ZM38.3149 15.846L35.5849 12.4062L38.3149 8.97418L39.2119 9.68398L37.0435 12.4062L39.2119 15.1362L38.3149 15.846ZM44.3106 16.626V5.39398H45.9408V10.6356L50.6442 5.39398H52.6722L47.7036 10.8774L53.0388 16.626H50.9484L45.9408 11.2596V16.626H44.3106ZM56.5157 16.86C55.8917 16.86 55.3691 16.7456 54.9479 16.5168C54.5267 16.2828 54.2069 15.976 53.9885 15.5964C53.7753 15.2116 53.6687 14.7904 53.6687 14.3328C53.6687 13.9064 53.7441 13.532 53.8949 13.2096C54.0457 12.8872 54.2693 12.6142 54.5657 12.3906C54.8621 12.1618 55.2261 11.9772 55.6577 11.8368C56.0321 11.7276 56.4559 11.6314 56.9291 11.5482C57.4023 11.465 57.8989 11.387 58.4189 11.3142C58.9441 11.2414 59.4641 11.1686 59.9789 11.0958L59.3861 11.4234C59.3965 10.763 59.2561 10.2742 58.9649 9.95698C58.6789 9.63458 58.1849 9.47338 57.4829 9.47338C57.0409 9.47338 56.6353 9.57738 56.2661 9.78538C55.8969 9.98818 55.6395 10.3262 55.4939 10.7994L53.9729 10.3314C54.1809 9.60858 54.5761 9.03398 55.1585 8.60758C55.7461 8.18118 56.5261 7.96798 57.4985 7.96798C58.2525 7.96798 58.9077 8.09798 59.4641 8.35798C60.0257 8.61278 60.4365 9.01838 60.6965 9.57478C60.8317 9.85038 60.9149 10.1416 60.9461 10.4484C60.9773 10.7552 60.9929 11.0854 60.9929 11.439V16.626H59.5499V14.6994L59.8307 14.949C59.4823 15.5938 59.0377 16.0748 58.4969 16.392C57.9613 16.704 57.3009 16.86 56.5157 16.86ZM56.8043 15.5262C57.2671 15.5262 57.6649 15.4456 57.9977 15.2844C58.3305 15.118 58.5983 14.9074 58.8011 14.6526C59.0039 14.3978 59.1365 14.1326 59.1989 13.857C59.2873 13.6074 59.3367 13.3266 59.3471 13.0146C59.3627 12.7026 59.3705 12.453 59.3705 12.2658L59.9009 12.4608C59.3861 12.5388 58.9181 12.609 58.4969 12.6714C58.0757 12.7338 57.6935 12.7962 57.3503 12.8586C57.0123 12.9158 56.7107 12.986 56.4455 13.0692C56.2219 13.1472 56.0217 13.2408 55.8449 13.35C55.6733 13.4592 55.5355 13.5918 55.4315 13.7478C55.3327 13.9038 55.2833 14.0936 55.2833 14.3172C55.2833 14.5356 55.3379 14.7384 55.4471 14.9256C55.5563 15.1076 55.7227 15.2532 55.9463 15.3624C56.1699 15.4716 56.4559 15.5262 56.8043 15.5262ZM63.0106 16.626V8.20198H64.3756L67.4878 14.3796L70.5922 8.20198H71.965V16.626H70.3894V11.5404L67.8544 16.626H67.1134L64.5784 11.5404V16.626H63.0106ZM74.1469 16.626V8.20198H81.2527V16.626H79.6225V9.73858H75.7771V16.626H74.1469ZM84.5712 20.37L86.2014 15.9318L86.2248 17.2422L82.551 8.20198H84.2514L86.997 15.183H86.4978L89.1186 8.20198H90.7722L86.1234 20.37H84.5712ZM95.2931 16.86C94.4299 16.86 93.6967 16.6676 93.0935 16.2828C92.4903 15.898 92.0275 15.3702 91.7051 14.6994C91.3879 14.0286 91.2267 13.2668 91.2215 12.414C91.2267 11.5456 91.3931 10.7786 91.7207 10.113C92.0483 9.44218 92.5163 8.91698 93.1247 8.53738C93.7331 8.15778 94.4637 7.96798 95.3165 7.96798C96.2369 7.96798 97.0221 8.19678 97.6721 8.65438C98.3273 9.11198 98.7589 9.73858 98.9669 10.5342L97.3445 11.0022C97.1833 10.529 96.9181 10.1624 96.5489 9.90238C96.1849 9.63718 95.7663 9.50458 95.2931 9.50458C94.7575 9.50458 94.3181 9.63198 93.9749 9.88678C93.6317 10.1364 93.3769 10.4796 93.2105 10.9164C93.0441 11.3532 92.9583 11.8524 92.9531 12.414C92.9583 13.2824 93.1559 13.9844 93.5459 14.52C93.9411 15.0556 94.5235 15.3234 95.2931 15.3234C95.8183 15.3234 96.2421 15.2038 96.5645 14.9646C96.8921 14.7202 97.1417 14.3718 97.3133 13.9194L98.9669 14.3094C98.6913 15.131 98.2363 15.7628 97.6019 16.2048C96.9675 16.6416 96.1979 16.86 95.2931 16.86ZM107.283 16.86C106.419 16.86 105.686 16.6676 105.083 16.2828C104.48 15.898 104.017 15.3702 103.695 14.6994C103.377 14.0286 103.216 13.2668 103.211 12.414C103.216 11.5456 103.383 10.7786 103.71 10.113C104.038 9.44218 104.506 8.91698 105.114 8.53738C105.723 8.15778 106.453 7.96798 107.306 7.96798C108.226 7.96798 109.012 8.19678 109.662 8.65438C110.317 9.11198 110.748 9.73858 110.956 10.5342L109.334 11.0022C109.173 10.529 108.908 10.1624 108.538 9.90238C108.174 9.63718 107.756 9.50458 107.283 9.50458C106.747 9.50458 106.308 9.63198 105.964 9.88678C105.621 10.1364 105.366 10.4796 105.2 10.9164C105.034 11.3532 104.948 11.8524 104.943 12.414C104.948 13.2824 105.145 13.9844 105.535 14.52C105.931 15.0556 106.513 15.3234 107.283 15.3234C107.808 15.3234 108.232 15.2038 108.554 14.9646C108.882 14.7202 109.131 14.3718 109.303 13.9194L110.956 14.3094C110.681 15.131 110.226 15.7628 109.591 16.2048C108.957 16.6416 108.187 16.86 107.283 16.86ZM114.63 16.626V9.66838H111.752V8.20198H119.139V9.66838H116.26V16.626H114.63ZM127.718 8.20198V16.626H126.15V10.7682L121.938 16.626H120.612V8.20198H122.18V13.9428L126.399 8.20198H127.718ZM129.117 16.626V15.2454C129.429 15.3026 129.666 15.2948 129.827 15.222C129.993 15.144 130.116 15.0036 130.194 14.8008C130.277 14.598 130.347 14.3354 130.404 14.013C130.493 13.5398 130.568 13.0016 130.63 12.3984C130.698 11.79 130.758 11.1322 130.81 10.425C130.862 9.71778 130.909 8.97678 130.95 8.20198H137.003V16.626H135.365V9.73858H132.417C132.385 10.1494 132.349 10.5862 132.307 11.049C132.271 11.5066 132.229 11.9616 132.183 12.414C132.136 12.8664 132.086 13.2902 132.034 13.6854C131.982 14.0806 131.928 14.4186 131.871 14.6994C131.767 15.261 131.613 15.7082 131.41 16.041C131.213 16.3686 130.932 16.5792 130.568 16.6728C130.204 16.7716 129.72 16.756 129.117 16.626ZM139.182 16.626V8.20198H140.82V11.127H142.482C142.721 11.127 142.976 11.1322 143.246 11.1426C143.522 11.153 143.758 11.179 143.956 11.2206C144.408 11.3142 144.798 11.4702 145.126 11.6886C145.459 11.907 145.716 12.1982 145.898 12.5622C146.08 12.921 146.171 13.363 146.171 13.8882C146.171 14.6214 145.979 15.2064 145.594 15.6432C145.214 16.0748 144.7 16.366 144.05 16.5168C143.842 16.5636 143.595 16.5948 143.309 16.6104C143.028 16.6208 142.77 16.626 142.536 16.626H139.182ZM140.82 15.3156H142.63C142.76 15.3156 142.908 15.3104 143.075 15.3C143.241 15.2896 143.394 15.2662 143.535 15.2298C143.784 15.157 144.008 15.0088 144.206 14.7852C144.403 14.5616 144.502 14.2626 144.502 13.8882C144.502 13.5034 144.403 13.1966 144.206 12.9678C144.013 12.739 143.769 12.5908 143.472 12.5232C143.332 12.4868 143.189 12.4634 143.043 12.453C142.898 12.4426 142.76 12.4374 142.63 12.4374H140.82V15.3156ZM148.685 15.846L147.788 15.1362L149.956 12.4062L147.788 9.68398L148.685 8.97418L151.415 12.4062L148.685 15.846ZM151.703 15.846L150.798 15.1362L152.975 12.4062L150.798 9.68398L151.703 8.97418L154.433 12.4062L151.703 15.846Z" fill="url(#paint2_linear_157_2018)"/>
<path d="M48.9207 27.3735V22.8375H49.4709L51.2391 26.5503L53.0115 22.8375H53.5575V27.3735H52.9611V24.1563L51.4365 27.3735H51.0459L49.5213 24.1563V27.3735H48.9207ZM56.6521 27.4995C56.2097 27.4995 55.8261 27.4015 55.5013 27.2055C55.1793 27.0095 54.9287 26.7337 54.7495 26.3781C54.5703 26.0225 54.4807 25.6053 54.4807 25.1265C54.4807 24.6309 54.5689 24.2025 54.7453 23.8413C54.9217 23.4801 55.1695 23.2015 55.4887 23.0055C55.8107 22.8095 56.1901 22.7115 56.6269 22.7115C57.0749 22.7115 57.4571 22.8151 57.7735 23.0223C58.0899 23.2267 58.3293 23.5207 58.4917 23.9043C58.6541 24.2879 58.7283 24.7457 58.7143 25.2777H58.0843V25.0593C58.0731 24.4713 57.9457 24.0275 57.7021 23.7279C57.4613 23.4283 57.1085 23.2785 56.6437 23.2785C56.1565 23.2785 55.7827 23.4367 55.5223 23.7531C55.2647 24.0695 55.1359 24.5203 55.1359 25.1055C55.1359 25.6767 55.2647 26.1205 55.5223 26.4369C55.7827 26.7505 56.1509 26.9073 56.6269 26.9073C56.9517 26.9073 57.2345 26.8331 57.4753 26.6847C57.7189 26.5335 57.9107 26.3165 58.0507 26.0337L58.6261 26.2563C58.4469 26.6511 58.1823 26.9577 57.8323 27.1761C57.4851 27.3917 57.0917 27.4995 56.6521 27.4995ZM54.9175 25.2777V24.7611H58.3825V25.2777H54.9175ZM61.465 27.5037C61.0422 27.5009 60.6796 27.4085 60.3772 27.2265C60.0748 27.0445 59.8396 26.7729 59.6716 26.4117C59.5064 26.0505 59.4168 25.5997 59.4028 25.0593C59.3944 24.8213 59.4 24.5623 59.4196 24.2823C59.4392 23.9995 59.47 23.7307 59.512 23.4759C59.554 23.2211 59.6044 23.0139 59.6632 22.8543C59.736 22.6471 59.8396 22.4539 59.974 22.2747C60.1112 22.0927 60.2694 21.9443 60.4486 21.8295C60.6222 21.7119 60.8182 21.6209 61.0366 21.5565C61.2578 21.4893 61.4874 21.4375 61.7254 21.4011C61.9662 21.3647 62.2042 21.3325 62.4394 21.3045C62.6774 21.2765 62.8972 21.2415 63.0988 21.1995L63.166 21.7581C63.012 21.7889 62.83 21.8169 62.62 21.8421C62.41 21.8673 62.1902 21.8981 61.9606 21.9345C61.731 21.9681 61.5112 22.0143 61.3012 22.0731C61.0912 22.1319 60.912 22.2089 60.7636 22.3041C60.5368 22.4413 60.3618 22.6485 60.2386 22.9257C60.1182 23.2029 60.044 23.5207 60.016 23.8791C60.1896 23.6075 60.4192 23.4031 60.7048 23.2659C60.9932 23.1287 61.3054 23.0601 61.6414 23.0601C62.0502 23.0601 62.4016 23.1539 62.6956 23.3415C62.9924 23.5291 63.2206 23.7895 63.3802 24.1227C63.5398 24.4559 63.6196 24.8381 63.6196 25.2693C63.6196 25.7201 63.5314 26.1135 63.355 26.4495C63.1814 26.7855 62.9336 27.0459 62.6116 27.2307C62.2896 27.4127 61.9074 27.5037 61.465 27.5037ZM61.5112 26.9115C61.9872 26.9115 62.3484 26.7631 62.5948 26.4663C62.844 26.1695 62.9686 25.7747 62.9686 25.2819C62.9686 24.7779 62.8398 24.3803 62.5822 24.0891C62.3274 23.7979 61.9676 23.6523 61.5028 23.6523C61.038 23.6523 60.681 23.7979 60.4318 24.0891C60.1826 24.3803 60.058 24.7779 60.058 25.2819C60.058 25.7859 60.1826 26.1835 60.4318 26.4747C60.681 26.7659 61.0408 26.9115 61.5112 26.9115ZM66.4631 27.4995C66.0207 27.4995 65.6371 27.4015 65.3123 27.2055C64.9903 27.0095 64.7397 26.7337 64.5605 26.3781C64.3813 26.0225 64.2917 25.6053 64.2917 25.1265C64.2917 24.6309 64.3799 24.2025 64.5563 23.8413C64.7327 23.4801 64.9805 23.2015 65.2997 23.0055C65.6217 22.8095 66.0011 22.7115 66.4379 22.7115C66.8859 22.7115 67.2681 22.8151 67.5845 23.0223C67.9009 23.2267 68.1403 23.5207 68.3027 23.9043C68.4651 24.2879 68.5393 24.7457 68.5253 25.2777H67.8953V25.0593C67.8841 24.4713 67.7567 24.0275 67.5131 23.7279C67.2723 23.4283 66.9195 23.2785 66.4547 23.2785C65.9675 23.2785 65.5937 23.4367 65.3333 23.7531C65.0757 24.0695 64.9469 24.5203 64.9469 25.1055C64.9469 25.6767 65.0757 26.1205 65.3333 26.4369C65.5937 26.7505 65.9619 26.9073 66.4379 26.9073C66.7627 26.9073 67.0455 26.8331 67.2863 26.6847C67.5299 26.5335 67.7217 26.3165 67.8617 26.0337L68.4371 26.2563C68.2579 26.6511 67.9933 26.9577 67.6433 27.1761C67.2961 27.3917 66.9027 27.4995 66.4631 27.4995ZM64.7285 25.2777V24.7611H68.1935V25.2777H64.7285ZM69.0373 27.3735V26.8317C69.2053 26.8625 69.3327 26.8555 69.4195 26.8107C69.5091 26.7631 69.5749 26.6847 69.6169 26.5755C69.6589 26.4635 69.6939 26.3249 69.7219 26.1597C69.7667 25.8853 69.8073 25.5829 69.8437 25.2525C69.8801 24.9221 69.9123 24.5581 69.9403 24.1605C69.9711 23.7601 70.0019 23.3191 70.0327 22.8375H73.1155V27.3735H72.5023V23.4297H70.6039C70.5843 23.7265 70.5619 24.0219 70.5367 24.3159C70.5115 24.6099 70.4849 24.8927 70.4569 25.1643C70.4317 25.4331 70.4037 25.6809 70.3729 25.9077C70.3421 26.1345 70.3099 26.3305 70.2763 26.4957C70.2259 26.7449 70.1587 26.9437 70.0747 27.0921C69.9935 27.2405 69.8717 27.3385 69.7093 27.3861C69.5469 27.4337 69.3229 27.4295 69.0373 27.3735ZM74.2932 27.3735L74.2848 22.8375H74.9064V24.5469H75.969C76.1006 24.5469 76.2294 24.5497 76.3554 24.5553C76.4842 24.5609 76.5976 24.5721 76.6956 24.5889C76.9196 24.6309 77.1184 24.7051 77.292 24.8115C77.4684 24.9179 77.6056 25.0649 77.7036 25.2525C77.8044 25.4401 77.8548 25.6753 77.8548 25.9581C77.8548 26.3473 77.754 26.6539 77.5524 26.8779C77.3536 27.1019 77.1016 27.2475 76.7964 27.3147C76.6816 27.3399 76.557 27.3567 76.4226 27.3651C76.2882 27.3707 76.1552 27.3735 76.0236 27.3735H74.2932ZM74.9064 26.8443H75.9984C76.0936 26.8443 76.2 26.8415 76.3176 26.8359C76.4352 26.8303 76.5388 26.8149 76.6284 26.7897C76.7768 26.7477 76.9112 26.6637 77.0316 26.5377C77.1548 26.4089 77.2164 26.2157 77.2164 25.9581C77.2164 25.7033 77.1576 25.5115 77.04 25.3827C76.9224 25.2511 76.7656 25.1643 76.5696 25.1223C76.4828 25.1027 76.389 25.0901 76.2882 25.0845C76.1874 25.0789 76.0908 25.0761 75.9984 25.0761H74.9064V26.8443ZM80.1217 28.3815V26.8443C80.3793 26.8443 80.5641 26.7617 80.6761 26.5965C80.7881 26.4285 80.8791 26.1611 80.9491 25.7943C80.9967 25.5563 81.0359 25.3001 81.0667 25.0257C81.0975 24.7513 81.1241 24.4377 81.1465 24.0849C81.1689 23.7293 81.1899 23.3135 81.2095 22.8375H84.2083V26.8443H84.6451V28.3815H84.0487V27.3735H80.7139V28.3815H80.1217ZM81.1675 26.8443H83.5951V23.3667H81.7807C81.7723 23.5795 81.7597 23.8049 81.7429 24.0429C81.7289 24.2809 81.7107 24.5189 81.6883 24.7569C81.6687 24.9949 81.6449 25.2189 81.6169 25.4289C81.5917 25.6361 81.5609 25.8181 81.5245 25.9749C81.4825 26.1765 81.4363 26.3487 81.3859 26.4915C81.3383 26.6343 81.2655 26.7519 81.1675 26.8443ZM85.0662 27.3735V26.8317C85.2342 26.8625 85.3616 26.8555 85.4484 26.8107C85.538 26.7631 85.6038 26.6847 85.6458 26.5755C85.6878 26.4635 85.7228 26.3249 85.7508 26.1597C85.7956 25.8853 85.8362 25.5829 85.8726 25.2525C85.909 24.9221 85.9412 24.5581 85.9692 24.1605C86 23.7601 86.0308 23.3191 86.0616 22.8375H89.1444V27.3735H88.5312V23.4297H86.6328C86.6132 23.7265 86.5908 24.0219 86.5656 24.3159C86.5404 24.6099 86.5138 24.8927 86.4858 25.1643C86.4606 25.4331 86.4326 25.6809 86.4018 25.9077C86.371 26.1345 86.3388 26.3305 86.3052 26.4957C86.2548 26.7449 86.1876 26.9437 86.1036 27.0921C86.0224 27.2405 85.9006 27.3385 85.7382 27.3861C85.5758 27.4337 85.3518 27.4295 85.0662 27.3735ZM93.1613 27.3735V25.6641H92.1029C91.9797 25.6641 91.8523 25.6599 91.7207 25.6515C91.5919 25.6403 91.4715 25.6249 91.3595 25.6053C91.0403 25.5437 90.7687 25.4037 90.5447 25.1853C90.3235 24.9641 90.2129 24.6589 90.2129 24.2697C90.2129 23.8889 90.3165 23.5837 90.5237 23.3541C90.7309 23.1217 90.9815 22.9705 91.2755 22.9005C91.4099 22.8697 91.5457 22.8515 91.6829 22.8459C91.8229 22.8403 91.9433 22.8375 92.0441 22.8375H93.7787L93.7829 27.3735H93.1613ZM90.0659 27.3735L91.3301 25.4709H92.0147L90.7421 27.3735H90.0659ZM92.0693 25.1349H93.1613V23.3667H92.0693C92.0021 23.3667 91.9083 23.3695 91.7879 23.3751C91.6675 23.3807 91.5541 23.3989 91.4477 23.4297C91.3553 23.4577 91.2629 23.5067 91.1705 23.5767C91.0809 23.6439 91.0053 23.7349 90.9437 23.8497C90.8821 23.9617 90.8513 24.0989 90.8513 24.2613C90.8513 24.4881 90.9129 24.6701 91.0361 24.8073C91.1621 24.9417 91.3189 25.0341 91.5065 25.0845C91.6073 25.1069 91.7081 25.1209 91.8089 25.1265C91.9097 25.1321 91.9965 25.1349 92.0693 25.1349ZM98.5367 27.4995C98.0859 27.4995 97.7009 27.3973 97.3817 27.1929C97.0625 26.9885 96.8175 26.7057 96.6467 26.3445C96.4759 25.9833 96.3905 25.5689 96.3905 25.1013C96.3905 24.6253 96.4773 24.2081 96.6509 23.8497C96.8245 23.4913 97.0709 23.2127 97.3901 23.0139C97.7121 22.8123 98.0943 22.7115 98.5367 22.7115C98.9903 22.7115 99.3767 22.8137 99.6959 23.0181C100.018 23.2197 100.263 23.5011 100.431 23.8623C100.602 24.2207 100.687 24.6337 100.687 25.1013C100.687 25.5773 100.602 25.9959 100.431 26.3571C100.26 26.7155 100.014 26.9955 99.6917 27.1971C99.3697 27.3987 98.9847 27.4995 98.5367 27.4995ZM98.5367 26.9073C99.0407 26.9073 99.4159 26.7407 99.6623 26.4075C99.9087 26.0715 100.032 25.6361 100.032 25.1013C100.032 24.5525 99.9073 24.1157 99.6581 23.7909C99.4117 23.4661 99.0379 23.3037 98.5367 23.3037C98.1979 23.3037 97.9179 23.3807 97.6967 23.5347C97.4783 23.6859 97.3145 23.8973 97.2053 24.1689C97.0989 24.4377 97.0457 24.7485 97.0457 25.1013C97.0457 25.6473 97.1717 26.0855 97.4237 26.4159C97.6757 26.7435 98.0467 26.9073 98.5367 26.9073ZM103.432 27.5037C103.009 27.5009 102.647 27.4085 102.344 27.2265C102.042 27.0445 101.807 26.7729 101.639 26.4117C101.474 26.0505 101.384 25.5997 101.37 25.0593C101.362 24.8213 101.367 24.5623 101.387 24.2823C101.406 23.9995 101.437 23.7307 101.479 23.4759C101.521 23.2211 101.572 23.0139 101.63 22.8543C101.703 22.6471 101.807 22.4539 101.941 22.2747C102.078 22.0927 102.237 21.9443 102.416 21.8295C102.589 21.7119 102.785 21.6209 103.004 21.5565C103.225 21.4893 103.455 21.4375 103.693 21.4011C103.933 21.3647 104.171 21.3325 104.407 21.3045C104.645 21.2765 104.864 21.2415 105.066 21.1995L105.133 21.7581C104.979 21.7889 104.797 21.8169 104.587 21.8421C104.377 21.8673 104.157 21.8981 103.928 21.9345C103.698 21.9681 103.478 22.0143 103.268 22.0731C103.058 22.1319 102.879 22.2089 102.731 22.3041C102.504 22.4413 102.329 22.6485 102.206 22.9257C102.085 23.2029 102.011 23.5207 101.983 23.8791C102.157 23.6075 102.386 23.4031 102.672 23.2659C102.96 23.1287 103.273 23.0601 103.609 23.0601C104.017 23.0601 104.369 23.1539 104.663 23.3415C104.96 23.5291 105.188 23.7895 105.347 24.1227C105.507 24.4559 105.587 24.8381 105.587 25.2693C105.587 25.7201 105.499 26.1135 105.322 26.4495C105.149 26.7855 104.901 27.0459 104.579 27.2307C104.257 27.4127 103.875 27.5037 103.432 27.5037ZM103.478 26.9115C103.954 26.9115 104.316 26.7631 104.562 26.4663C104.811 26.1695 104.936 25.7747 104.936 25.2819C104.936 24.7779 104.807 24.3803 104.549 24.0891C104.295 23.7979 103.935 23.6523 103.47 23.6523C103.005 23.6523 102.648 23.7979 102.399 24.0891C102.15 24.3803 102.025 24.7779 102.025 25.2819C102.025 25.7859 102.15 26.1835 102.399 26.4747C102.648 26.7659 103.008 26.9115 103.478 26.9115ZM111.681 28.1589V27.3735H106.507V22.8375H107.107V26.8023H108.808V22.8375H109.409V26.8023H111.106V22.8375H111.706V26.8023H112.298V28.1589H111.681ZM114.886 27.4995C114.444 27.4995 114.06 27.4015 113.735 27.2055C113.413 27.0095 113.163 26.7337 112.984 26.3781C112.804 26.0225 112.715 25.6053 112.715 25.1265C112.715 24.6309 112.803 24.2025 112.979 23.8413C113.156 23.4801 113.404 23.2015 113.723 23.0055C114.045 22.8095 114.424 22.7115 114.861 22.7115C115.309 22.7115 115.691 22.8151 116.008 23.0223C116.324 23.2267 116.563 23.5207 116.726 23.9043C116.888 24.2879 116.962 24.7457 116.948 25.2777H116.318V25.0593C116.307 24.4713 116.18 24.0275 115.936 23.7279C115.695 23.4283 115.343 23.2785 114.878 23.2785C114.391 23.2785 114.017 23.4367 113.756 23.7531C113.499 24.0695 113.37 24.5203 113.37 25.1055C113.37 25.6767 113.499 26.1205 113.756 26.4369C114.017 26.7505 114.385 26.9073 114.861 26.9073C115.186 26.9073 115.469 26.8331 115.709 26.6847C115.953 26.5335 116.145 26.3165 116.285 26.0337L116.86 26.2563C116.681 26.6511 116.416 26.9577 116.066 27.1761C115.719 27.3917 115.326 27.4995 114.886 27.4995ZM113.152 25.2777V24.7611H116.617V25.2777H113.152ZM117.212 27.3735L119.128 25.1055L117.292 22.8375H117.989L119.779 25.0761V22.8375H120.35V25.0761L122.139 22.8375H122.832L120.997 25.1055L122.912 27.3735H122.194L120.35 25.1349V27.3735H119.779V25.1349L117.931 27.3735H117.212ZM127.185 22.8375V27.3735H126.585V23.8413L124.098 27.3735H123.577V22.8375H124.178V26.3403L126.669 22.8375H127.185ZM129.595 27.3735V23.4087H127.986V22.8375H131.821V23.4087H130.212V27.3735H129.595ZM136.225 22.8375V27.3735H135.624V23.8413L133.138 27.3735H132.617V22.8375H133.218V26.3403L135.708 22.8375H136.225ZM139.285 22.2999C139.087 22.2999 138.905 22.2509 138.739 22.1529C138.574 22.0549 138.443 21.9247 138.345 21.7623C138.249 21.5971 138.202 21.4151 138.202 21.2163H138.714C138.714 21.3731 138.77 21.5075 138.882 21.6195C138.994 21.7315 139.129 21.7875 139.285 21.7875C139.445 21.7875 139.579 21.7315 139.689 21.6195C139.801 21.5075 139.857 21.3731 139.857 21.2163H140.369C140.369 21.4151 140.32 21.5971 140.222 21.7623C140.127 21.9247 139.997 22.0549 139.831 22.1529C139.666 22.2509 139.484 22.2999 139.285 22.2999ZM141.007 22.8375V27.3735H140.407V23.8413L137.92 27.3735H137.4V22.8375H138V26.3403L140.491 22.8375H141.007Z" fill="#282828"/>
<defs>
<linearGradient id="paint0_linear_157_2018" x1="6.0166" y1="18.3899" x2="31.1877" y2="18.124" gradientUnits="userSpaceOnUse">
<stop stop-color="#FF6408"/>
<stop offset="1" stop-color="#FF8F3B"/>
</linearGradient>
<linearGradient id="paint1_linear_157_2018" x1="-1.77637e-08" y1="22.1858" x2="25.1711" y2="21.9199" gradientUnits="userSpaceOnUse">
<stop stop-color="#FF6408"/>
<stop offset="1" stop-color="#FF8F3B"/>
</linearGradient>
<linearGradient id="paint2_linear_157_2018" x1="34.3369" y1="15.5557" x2="156.391" y2="8.06317" gradientUnits="userSpaceOnUse">
<stop stop-color="#FF6408"/>
<stop offset="1" stop-color="#FF8F3B"/>
</linearGradient>
</defs>
</svg>
