<svg width="20" height="15" viewBox="0 0 20 15" fill="none" xmlns="http://www.w3.org/2000/svg">
<path d="M13.4678 0.878463C13.402 0.811501 13.3236 0.758312 13.2371 0.722002C13.1506 0.685693 13.0577 0.666992 12.9638 0.666992C12.87 0.666992 12.7771 0.685693 12.6905 0.722002C12.604 0.758312 12.5256 0.811501 12.4598 0.878463C12.3289 1.01152 12.2556 1.1907 12.2556 1.37735C12.2556 1.56401 12.3289 1.74319 12.4598 1.87624L17.5707 6.98707H0.705631C0.612796 6.98665 0.520799 7.00463 0.434958 7.03999C0.349116 7.07534 0.271133 7.12735 0.205518 7.19303C0.139903 7.2587 0.0879565 7.33673 0.0526823 7.42261C0.0174081 7.50848 -0.000494208 7.60049 1.03767e-05 7.69333C1.03767e-05 8.08647 0.312491 8.40911 0.705631 8.40911H17.5707L12.4598 13.5104C12.1874 13.7924 12.1874 14.2465 12.4598 14.5184C12.5256 14.5853 12.604 14.6385 12.6905 14.6748C12.7771 14.7111 12.87 14.7298 12.9638 14.7298C13.0577 14.7298 13.1506 14.7111 13.2371 14.6748C13.3236 14.6385 13.402 14.5853 13.4678 14.5184L19.7885 8.19761C19.8554 8.13288 19.9086 8.05536 19.9449 7.96966C19.9813 7.88395 20 7.79181 20 7.69873C20 7.60564 19.9813 7.5135 19.9449 7.42779C19.9086 7.34209 19.8554 7.26457 19.7885 7.19984L13.4678 0.878463Z" fill="#282828"/>
</svg>
