<svg width="18" height="13" viewBox="0 0 18 13" fill="none" xmlns="http://www.w3.org/2000/svg">
<path d="M11.8897 0.732134C11.8349 0.676332 11.7695 0.632008 11.6974 0.60175C11.6253 0.571492 11.5479 0.555908 11.4697 0.555908C11.3915 0.555908 11.3141 0.571492 11.242 0.60175C11.1698 0.632008 11.1045 0.676332 11.0497 0.732134C10.9406 0.843013 10.8795 0.992327 10.8795 1.14787C10.8795 1.30342 10.9406 1.45274 11.0497 1.56362L15.3087 5.82264H1.25453C1.17717 5.82229 1.1005 5.83728 1.02897 5.86674C0.957434 5.8962 0.892448 5.93954 0.837769 5.99427C0.78309 6.049 0.739801 6.11403 0.710406 6.18559C0.681011 6.25715 0.666092 6.33383 0.666513 6.41119C0.666513 6.73881 0.926913 7.00767 1.25453 7.00767H15.3087L11.0497 11.2588C10.8227 11.4938 10.8227 11.8722 11.0497 12.0987C11.1045 12.1545 11.1698 12.1988 11.242 12.2291C11.3141 12.2594 11.3915 12.2749 11.4697 12.2749C11.5479 12.2749 11.6253 12.2594 11.6974 12.2291C11.7695 12.1988 11.8349 12.1545 11.8897 12.0987L17.1569 6.83143C17.2127 6.77749 17.257 6.71288 17.2873 6.64146C17.3176 6.57004 17.3332 6.49326 17.3332 6.41569C17.3332 6.33811 17.3176 6.26133 17.2873 6.18991C17.257 6.11849 17.2127 6.05389 17.1569 5.99995L11.8897 0.732134Z" fill="#282828"/>
</svg>
