<svg width="14" height="9" viewBox="0 0 14 9" fill="none" xmlns="http://www.w3.org/2000/svg">
<mask id="path-1-inside-1_2316_891" fill="white">
<path d="M13.0617 0.0834961H0.548995C0.506461 0.083521 0.465677 0.100437 0.435613 0.130526C0.405548 0.160614 0.388664 0.20141 0.388672 0.243945V1.54731C0.388672 1.58983 0.40556 1.63062 0.435624 1.6607C0.465688 1.69079 0.506466 1.7077 0.548995 1.70772H4.10647V3.13077C4.10648 3.15184 4.11063 3.1727 4.1187 3.19217C4.12676 3.21163 4.13859 3.22932 4.15349 3.24422C4.16839 3.25911 4.18608 3.27093 4.20555 3.27899C4.22502 3.28705 4.24588 3.29119 4.26695 3.29119H9.3436C9.38615 3.29117 9.42695 3.27427 9.45704 3.24419C9.48713 3.21411 9.50405 3.17332 9.50408 3.13077V1.70772H13.0617C13.1042 1.7077 13.145 1.69078 13.1751 1.66069C13.2051 1.63061 13.222 1.58981 13.222 1.54727V0.243914C13.222 0.201384 13.2051 0.160596 13.1751 0.130514C13.145 0.100433 13.1042 0.083521 13.0617 0.0834961ZM9.18343 2.97038H4.42728V1.70772H9.18318V2.97038H9.18343ZM12.9012 1.38695H0.709475V0.404268H12.9012L12.9012 1.38695Z"/>
</mask>
<path d="M13.0617 0.0834961L13.0623 -0.916504H13.0617V0.0834961ZM0.548995 0.0834961V-0.916504L0.548409 -0.916504L0.548995 0.0834961ZM0.388672 0.243945H1.38867V0.243749L0.388672 0.243945ZM0.388672 1.54731L1.38867 1.54731V1.54731H0.388672ZM0.548995 1.70772L0.548409 2.70772H0.548995V1.70772ZM4.10647 1.70772H5.10647V0.707723H4.10647V1.70772ZM4.10647 3.13077H3.10647V3.13097L4.10647 3.13077ZM4.26695 3.29119V2.29119H4.26676L4.26695 3.29119ZM9.3436 3.29119V4.29119H9.34399L9.3436 3.29119ZM9.50408 3.13077L10.5041 3.13155V3.13077H9.50408ZM9.50408 1.70772V0.707723H8.50408V1.70772H9.50408ZM13.0617 1.70772V2.70772L13.0623 2.70772L13.0617 1.70772ZM13.222 1.54727H12.222V1.54747L13.222 1.54727ZM13.222 0.243914L12.222 0.243913V0.243914H13.222ZM4.42728 2.97038H3.42727V3.97038H4.42728V2.97038ZM4.42728 1.70772V0.707723H3.42727V1.70772H4.42728ZM9.18318 1.70772H10.1832V0.707723H9.18318V1.70772ZM9.18318 2.97038H8.18318V3.97038H9.18318V2.97038ZM12.9012 1.38695V2.38695H13.9013L13.9012 1.38692L12.9012 1.38695ZM0.709475 1.38695H-0.290525V2.38695H0.709475V1.38695ZM0.709475 0.404268V-0.595732H-0.290525V0.404268H0.709475ZM12.9012 0.404268L13.9012 0.404236L13.9012 -0.595732H12.9012V0.404268ZM13.0617 -0.916504H0.548995V1.0835H13.0617V-0.916504ZM0.548409 -0.916504C0.240726 -0.916323 -0.0542903 -0.793955 -0.27177 -0.576305L1.143 0.837356C0.985645 0.99483 0.772196 1.08337 0.549581 1.0835L0.548409 -0.916504ZM-0.27177 -0.576305C-0.48925 -0.358655 -0.611388 -0.063543 -0.611328 0.24414L1.38867 0.243749C1.38872 0.466364 1.30035 0.679882 1.143 0.837356L-0.27177 -0.576305ZM-0.611328 0.243945V1.54731H1.38867V0.243945H-0.611328ZM-0.611328 1.54731C-0.611328 1.85495 -0.489163 2.15 -0.27169 2.3676L1.14294 0.953805C1.30028 1.11124 1.38867 1.32472 1.38867 1.54731L-0.611328 1.54731ZM-0.27169 2.3676C-0.0542173 2.5852 0.240765 2.70754 0.548409 2.70772L0.549581 0.707723C0.772168 0.707853 0.985592 0.796367 1.14294 0.953805L-0.27169 2.3676ZM0.548995 2.70772H4.10647V0.707723H0.548995V2.70772ZM3.10647 1.70772V3.13077H5.10647V1.70772H3.10647ZM3.10647 3.13097C3.1065 3.28335 3.13655 3.43425 3.19489 3.57503L5.0425 2.8093C5.08471 2.91116 5.10645 3.02033 5.10647 3.13057L3.10647 3.13097ZM3.19489 3.57503C3.25324 3.71581 3.33874 3.84372 3.44652 3.95146L4.86046 2.53697C4.93843 2.61491 5.00029 2.70745 5.0425 2.8093L3.19489 3.57503ZM3.44652 3.95146C3.5543 4.0592 3.68224 4.14465 3.82305 4.20294L4.58805 2.35503C4.68992 2.3972 4.78248 2.45903 4.86046 2.53697L3.44652 3.95146ZM3.82305 4.20294C3.96385 4.26123 4.11476 4.29122 4.26715 4.29119L4.26676 2.29119C4.37701 2.29117 4.48618 2.31286 4.58805 2.35503L3.82305 4.20294ZM4.26695 4.29119H9.3436V2.29119H4.26695V4.29119ZM9.34399 4.29119C9.65155 4.29107 9.94648 4.16887 10.164 3.95143L8.75007 2.53694C8.90741 2.37966 9.12074 2.29127 9.34321 2.29119L9.34399 4.29119ZM10.164 3.95143C10.3815 3.734 10.5038 3.43911 10.5041 3.13155L8.50408 3.12999C8.50425 2.90752 8.59273 2.69422 8.75007 2.53694L10.164 3.95143ZM10.5041 3.13077V1.70772H8.50408V3.13077H10.5041ZM9.50408 2.70772H13.0617V0.707723H9.50408V2.70772ZM13.0623 2.70772C13.37 2.70754 13.665 2.58517 13.8824 2.36752L12.4677 0.953863C12.625 0.796388 12.8385 0.707853 13.0611 0.707723L13.0623 2.70772ZM13.8824 2.36752C14.0999 2.14987 14.2221 1.85476 14.222 1.54708L12.222 1.54747C12.222 1.32485 12.3103 1.11134 12.4677 0.953863L13.8824 2.36752ZM14.222 1.54727V0.243914H12.222V1.54727H14.222ZM14.222 0.243914C14.222 -0.063737 14.0998 -0.358789 13.8824 -0.576385L12.4677 0.837414C12.3104 0.679981 12.222 0.466506 12.222 0.243913L14.222 0.243914ZM13.8824 -0.576385C13.6649 -0.793985 13.3699 -0.916323 13.0623 -0.916504L13.0611 1.0835C12.8385 1.08337 12.6251 0.994851 12.4677 0.837414L13.8824 -0.576385ZM9.18343 1.97038H4.42728V3.97038H9.18343V1.97038ZM5.42728 2.97038V1.70772H3.42727V2.97038H5.42728ZM4.42728 2.70772H9.18318V0.707723H4.42728V2.70772ZM8.18318 1.70772V2.97038H10.1832V1.70772H8.18318ZM9.18318 3.97038H9.18343V1.97038H9.18318V3.97038ZM12.9012 0.386951H0.709475V2.38695H12.9012V0.386951ZM1.70948 1.38695V0.404268H-0.290525V1.38695H1.70948ZM0.709475 1.40427H12.9012V-0.595732H0.709475V1.40427ZM11.9012 0.4043L11.9012 1.38698L13.9012 1.38692L13.9012 0.404236L11.9012 0.4043Z" fill="#E1E1E1" mask="url(#path-1-inside-1_2316_891)"/>
<mask id="path-3-inside-2_2316_891" fill="white">
<path d="M5.36832 2.51511H8.24249C8.28503 2.51511 8.32584 2.49821 8.35593 2.46812C8.38602 2.43804 8.40293 2.39724 8.40293 2.35469C8.40292 2.31216 8.38601 2.27137 8.35593 2.2413C8.32584 2.21123 8.28505 2.19434 8.24252 2.19434H5.36832C5.32578 2.19434 5.28499 2.21123 5.25491 2.24131C5.22483 2.27139 5.20793 2.31219 5.20793 2.35472C5.20793 2.39726 5.22483 2.43805 5.25491 2.46813C5.28499 2.49821 5.32578 2.51511 5.36832 2.51511ZM13.0617 4.90194H0.548995C0.506468 4.90199 0.4657 4.91892 0.43564 4.949C0.405581 4.97908 0.388688 5.01987 0.388672 5.06239V6.36585C0.388697 6.40836 0.405596 6.44912 0.435657 6.47919C0.465718 6.50925 0.506483 6.52615 0.548995 6.52617H4.10647V7.94931C4.10651 7.99186 4.12343 8.03265 4.15352 8.06273C4.18361 8.09281 4.22441 8.10971 4.26695 8.10973H9.3436C9.38614 8.10969 9.42693 8.09279 9.45702 8.06271C9.48711 8.03264 9.50403 7.99185 9.50408 7.94931V6.52617H13.0617C13.1042 6.52615 13.145 6.50925 13.175 6.47919C13.2051 6.44912 13.222 6.40836 13.222 6.36585V5.06239C13.222 5.01987 13.2051 4.97908 13.175 4.949C13.145 4.91892 13.1042 4.90199 13.0617 4.90194ZM9.18343 7.78883H4.42728V6.52617H9.18318V7.78883H9.18343ZM12.9012 6.2054H0.709475V5.22284H12.9012L12.9012 6.2054Z"/>
</mask>
<path d="M8.24249 2.51511V1.51511V2.51511ZM8.40293 2.35469L9.40293 2.35489V2.3543L8.40293 2.35469ZM8.24252 2.19434V3.19434H8.24252L8.24252 2.19434ZM13.0617 4.90194L13.0629 3.90194H13.0617V4.90194ZM0.548995 4.90194V3.90194L0.547824 3.90194L0.548995 4.90194ZM0.388672 5.06239L-0.611328 5.062V5.06239H0.388672ZM0.388672 6.36585H-0.611328L-0.611328 6.36643L0.388672 6.36585ZM0.548995 6.52617L0.54841 7.52617H0.548995V6.52617ZM4.10647 6.52617H5.10647V5.52617H4.10647V6.52617ZM4.10647 7.94931H3.10647L3.10647 7.95009L4.10647 7.94931ZM4.26695 8.10973L4.26656 9.10973H4.26695V8.10973ZM9.3436 8.10973V9.10973L9.34438 9.10973L9.3436 8.10973ZM9.50408 7.94931L10.5041 7.95048V7.94931H9.50408ZM9.50408 6.52617V5.52617H8.50408V6.52617H9.50408ZM13.0617 6.52617V7.52617H13.0623L13.0617 6.52617ZM13.222 6.36585L14.222 6.36643V6.36585H13.222ZM13.222 5.06239H14.222V5.062L13.222 5.06239ZM4.42728 7.78883H3.42727V8.78883H4.42728V7.78883ZM4.42728 6.52617V5.52617H3.42727V6.52617H4.42728ZM9.18318 6.52617H10.1832V5.52617H9.18318V6.52617ZM9.18318 7.78883H8.18318V8.78883H9.18318V7.78883ZM12.9012 6.2054V7.2054H13.9013L13.9012 6.20537L12.9012 6.2054ZM0.709475 6.2054H-0.290525V7.2054H0.709475V6.2054ZM0.709475 5.22284V4.22284H-0.290525V5.22284H0.709475ZM12.9012 5.22284L13.9012 5.22281L13.9012 4.22284H12.9012V5.22284ZM5.36832 3.51511H8.24249V1.51511H5.36832V3.51511ZM8.24249 3.51511C8.55022 3.51511 8.84535 3.39288 9.06297 3.1753L7.64889 1.76095C7.80633 1.60354 8.01985 1.51511 8.24249 1.51511V3.51511ZM9.06297 3.1753C9.28058 2.95773 9.40287 2.66262 9.40293 2.35489L7.40293 2.3545C7.40298 2.13185 7.49145 1.91836 7.64889 1.76095L9.06297 3.1753ZM9.40293 2.3543C9.40281 2.04661 9.2805 1.75157 9.06289 1.53405L7.64896 2.94854C7.49152 2.79117 7.40302 2.5777 7.40293 2.35508L9.40293 2.3543ZM9.06289 1.53405C8.84529 1.31653 8.5502 1.19434 8.24252 1.19434L8.24252 3.19434C8.0199 3.19434 7.8064 3.10592 7.64896 2.94854L9.06289 1.53405ZM8.24252 1.19434H5.36832V3.19434H8.24252V1.19434ZM5.36832 1.19434C5.06056 1.19434 4.76541 1.31659 4.5478 1.53421L5.96201 2.94842C5.80456 3.10588 5.591 3.19434 5.36832 3.19434V1.19434ZM4.5478 1.53421C4.33019 1.75182 4.20793 2.04696 4.20793 2.35472H6.20793C6.20793 2.57741 6.11947 2.79096 5.96201 2.94842L4.5478 1.53421ZM4.20793 2.35472C4.20793 2.66248 4.33019 2.95763 4.5478 3.17524L5.96201 1.76103C6.11947 1.91848 6.20793 2.13204 6.20793 2.35472H4.20793ZM4.5478 3.17524C4.76541 3.39285 5.06056 3.51511 5.36832 3.51511V1.51511C5.591 1.51511 5.80456 1.60357 5.96201 1.76103L4.5478 3.17524ZM13.0617 3.90194H0.548995V5.90194H13.0617V3.90194ZM0.547824 3.90194C0.24035 3.9023 -0.0544125 4.02467 -0.271743 4.24217L1.14302 5.65583C0.985812 5.81317 0.772587 5.90168 0.550166 5.90194L0.547824 3.90194ZM-0.271743 4.24217C-0.489074 4.45967 -0.611208 4.75453 -0.611328 5.062L1.38867 5.06278C1.38859 5.2852 1.30024 5.4985 1.14302 5.65583L-0.271743 4.24217ZM-0.611328 5.06239V6.36585H1.38867V5.06239H-0.611328ZM-0.611328 6.36643C-0.611148 6.67396 -0.488903 6.96884 -0.27145 7.18629L1.14276 5.77208C1.3001 5.92941 1.38854 6.14276 1.38867 6.36526L-0.611328 6.36643ZM-0.27145 7.18629C-0.0539925 7.40375 0.240888 7.52599 0.54841 7.52617L0.549581 5.52617C0.772077 5.5263 0.985429 5.61474 1.14276 5.77208L-0.27145 7.18629ZM0.548995 7.52617H4.10647V5.52617H0.548995V7.52617ZM3.10647 6.52617V7.94931H5.10647V6.52617H3.10647ZM3.10647 7.95009C3.10671 8.25765 3.22902 8.55254 3.44655 8.76997L4.86048 7.35548C5.01783 7.51276 5.1063 7.72607 5.10647 7.94853L3.10647 7.95009ZM3.44655 8.76997C3.66407 8.98741 3.95901 9.10961 4.26656 9.10973L4.26734 7.10973C4.4898 7.10981 4.70314 7.1982 4.86048 7.35548L3.44655 8.76997ZM4.26695 9.10973H9.3436V7.10973H4.26695V9.10973ZM9.34438 9.10973C9.65179 9.10949 9.94656 8.98729 10.164 8.76996L8.75005 7.35547C8.9073 7.19828 9.12049 7.1099 9.34282 7.10973L9.34438 9.10973ZM10.164 8.76996C10.3814 8.55262 10.5037 8.2579 10.5041 7.95048L8.50408 7.94814C8.50434 7.7258 8.5928 7.51265 8.75005 7.35547L10.164 8.76996ZM10.5041 7.94931V6.52617H8.50408V7.94931H10.5041ZM9.50408 7.52617H13.0617V5.52617H9.50408V7.52617ZM13.0623 7.52617C13.3698 7.52599 13.6647 7.40375 13.8821 7.18629L12.4679 5.77208C12.6253 5.61474 12.8386 5.5263 13.0611 5.52617L13.0623 7.52617ZM13.8821 7.18629C14.0996 6.96884 14.2218 6.67395 14.222 6.36643L12.222 6.36526C12.2221 6.14276 12.3106 5.92941 12.4679 5.77208L13.8821 7.18629ZM14.222 6.36585V5.06239H12.222V6.36585H14.222ZM14.222 5.062C14.2219 4.75453 14.0997 4.45967 13.8824 4.24217L12.4677 5.65583C12.3104 5.4985 12.2221 5.28521 12.222 5.06278L14.222 5.062ZM13.8824 4.24217C13.6651 4.02467 13.3703 3.9023 13.0629 3.90194L13.0605 5.90194C12.8381 5.90168 12.6249 5.81317 12.4677 5.65583L13.8824 4.24217ZM9.18343 6.78883H4.42728V8.78883H9.18343V6.78883ZM5.42728 7.78883V6.52617H3.42727V7.78883H5.42728ZM4.42728 7.52617H9.18318V5.52617H4.42728V7.52617ZM8.18318 6.52617V7.78883H10.1832V6.52617H8.18318ZM9.18318 8.78883H9.18343V6.78883H9.18318V8.78883ZM12.9012 5.2054H0.709475V7.2054H12.9012V5.2054ZM1.70948 6.2054V5.22284H-0.290525V6.2054H1.70948ZM0.709475 6.22284H12.9012V4.22284H0.709475V6.22284ZM11.9012 5.22287L11.9012 6.20543L13.9012 6.20537L13.9012 5.22281L11.9012 5.22287Z" fill="#E1E1E1" mask="url(#path-3-inside-2_2316_891)"/>
</svg>
