<svg width="10" height="13" viewBox="0 0 10 13" fill="none" xmlns="http://www.w3.org/2000/svg">
<mask id="path-1-inside-1_2316_873" fill="white">
<path d="M9.42961 0.458496H1.20902C1.13882 0.458496 1.0715 0.486383 1.02186 0.536021C0.972223 0.58566 0.944336 0.652984 0.944336 0.723184V11.1376C0.944336 11.2078 0.972223 11.2751 1.02186 11.3247C1.0715 11.3744 1.13882 11.4023 1.20902 11.4023H1.90738V12.1047C1.90738 12.1749 1.93527 12.2423 1.98491 12.2919C2.03455 12.3415 2.10187 12.3694 2.17207 12.3694C2.24227 12.3694 2.30959 12.3415 2.35923 12.2919C2.40887 12.2423 2.43676 12.1749 2.43676 12.1047V11.4023H8.20191V12.1047C8.20191 12.1749 8.2298 12.2423 8.27944 12.2919C8.32908 12.3415 8.3964 12.3694 8.4666 12.3694C8.5368 12.3694 8.60413 12.3415 8.65376 12.2919C8.7034 12.2423 8.73129 12.1749 8.73129 12.1047V11.4023H9.42965C9.49985 11.4023 9.56717 11.3744 9.61681 11.3247C9.66645 11.2751 9.69434 11.2078 9.69434 11.1376V0.723184C9.69433 0.652981 9.66643 0.585656 9.61679 0.536019C9.56714 0.486382 9.49981 0.458496 9.42961 0.458496ZM1.47371 0.987871H5.05463V10.8729H1.47371V0.987871ZM9.16492 10.8729H5.584V0.987871H9.16492V10.8729Z"/>
</mask>
<path d="M9.42961 0.458496H1.20902C1.13882 0.458496 1.0715 0.486383 1.02186 0.536021C0.972223 0.58566 0.944336 0.652984 0.944336 0.723184V11.1376C0.944336 11.2078 0.972223 11.2751 1.02186 11.3247C1.0715 11.3744 1.13882 11.4023 1.20902 11.4023H1.90738V12.1047C1.90738 12.1749 1.93527 12.2423 1.98491 12.2919C2.03455 12.3415 2.10187 12.3694 2.17207 12.3694C2.24227 12.3694 2.30959 12.3415 2.35923 12.2919C2.40887 12.2423 2.43676 12.1749 2.43676 12.1047V11.4023H8.20191V12.1047C8.20191 12.1749 8.2298 12.2423 8.27944 12.2919C8.32908 12.3415 8.3964 12.3694 8.4666 12.3694C8.5368 12.3694 8.60413 12.3415 8.65376 12.2919C8.7034 12.2423 8.73129 12.1749 8.73129 12.1047V11.4023H9.42965C9.49985 11.4023 9.56717 11.3744 9.61681 11.3247C9.66645 11.2751 9.69434 11.2078 9.69434 11.1376V0.723184C9.69433 0.652981 9.66643 0.585656 9.61679 0.536019C9.56714 0.486382 9.49981 0.458496 9.42961 0.458496ZM1.47371 0.987871H5.05463V10.8729H1.47371V0.987871ZM9.16492 10.8729H5.584V0.987871H9.16492V10.8729Z" fill="white"/>
<path d="M9.42961 0.458496V1.4585V0.458496ZM1.90738 11.4023H2.90738V10.4023H1.90738V11.4023ZM1.90738 12.1047H0.907382H1.90738ZM2.43676 11.4023V10.4023H1.43676V11.4023H2.43676ZM8.20191 11.4023H9.20191V10.4023H8.20191V11.4023ZM8.73129 11.4023V10.4023H7.73129V11.4023H8.73129ZM9.42965 11.4023V10.4023V11.4023ZM9.69434 0.723184H10.6943V0.723041L9.69434 0.723184ZM1.47371 0.987871V-0.012129H0.473711V0.987871H1.47371ZM5.05463 0.987871H6.05463V-0.012129H5.05463V0.987871ZM5.05463 10.8729V11.8729H6.05463V10.8729H5.05463ZM1.47371 10.8729H0.473711V11.8729H1.47371V10.8729ZM9.16492 10.8729V11.8729H10.1649V10.8729H9.16492ZM5.584 10.8729H4.584V11.8729H5.584V10.8729ZM5.584 0.987871V-0.012129H4.584V0.987871H5.584ZM9.16492 0.987871H10.1649V-0.012129H9.16492V0.987871ZM9.42961 -0.541504H1.20902V1.4585H9.42961V-0.541504ZM1.20902 -0.541504C0.873608 -0.541504 0.551929 -0.408261 0.314754 -0.171086L1.72897 1.24313C1.59107 1.38103 1.40404 1.4585 1.20902 1.4585V-0.541504ZM0.314754 -0.171086C0.077579 0.0660898 -0.0556641 0.387768 -0.0556641 0.723184H1.94434C1.94434 0.9182 1.86687 1.10523 1.72897 1.24313L0.314754 -0.171086ZM-0.0556641 0.723184V11.1376H1.94434V0.723184H-0.0556641ZM-0.0556641 11.1376C-0.0556641 11.473 0.07758 11.7947 0.314754 12.0318L1.72897 10.6176C1.86686 10.7555 1.94434 10.9426 1.94434 11.1376H-0.0556641ZM0.314754 12.0318C0.551927 12.269 0.873604 12.4023 1.20902 12.4023V10.4023C1.40404 10.4023 1.59107 10.4797 1.72897 10.6176L0.314754 12.0318ZM1.20902 12.4023H1.90738V10.4023H1.20902V12.4023ZM0.907382 11.4023V12.1047H2.90738V11.4023H0.907382ZM0.907382 12.1047C0.907382 12.4402 1.04063 12.7618 1.2778 12.999L2.69201 11.5848C2.82991 11.7227 2.90738 11.9097 2.90738 12.1047H0.907382ZM1.2778 12.999C1.51497 13.2362 1.83665 13.3694 2.17207 13.3694V11.3694C2.36709 11.3694 2.55412 11.4469 2.69201 11.5848L1.2778 12.999ZM2.17207 13.3694C2.50749 13.3694 2.82917 13.2362 3.06634 12.999L1.65213 11.5848C1.79002 11.4469 1.97705 11.3694 2.17207 11.3694V13.3694ZM3.06634 12.999C3.30351 12.7618 3.43676 12.4402 3.43676 12.1047H1.43676C1.43676 11.9097 1.51423 11.7227 1.65213 11.5848L3.06634 12.999ZM3.43676 12.1047V11.4023H1.43676V12.1047H3.43676ZM2.43676 12.4023H8.20191V10.4023H2.43676V12.4023ZM7.20191 11.4023V12.1047H9.20191V11.4023H7.20191ZM7.20191 12.1047C7.20191 12.4402 7.33516 12.7618 7.57233 12.999L8.98655 11.5848C9.12444 11.7227 9.20191 11.9097 9.20191 12.1047H7.20191ZM7.57233 12.999C7.8095 13.2362 8.13118 13.3694 8.4666 13.3694V11.3694C8.66162 11.3694 8.84865 11.4469 8.98655 11.5848L7.57233 12.999ZM8.4666 13.3694C8.80202 13.3694 9.1237 13.2362 9.36087 12.999L7.94666 11.5848C8.08455 11.4469 8.27158 11.3694 8.4666 11.3694V13.3694ZM9.36087 12.999C9.59805 12.7618 9.73129 12.4402 9.73129 12.1047H7.73129C7.73129 11.9097 7.80876 11.7227 7.94666 11.5848L9.36087 12.999ZM9.73129 12.1047V11.4023H7.73129V12.1047H9.73129ZM8.73129 12.4023H9.42965V10.4023H8.73129V12.4023ZM9.42965 12.4023C9.76507 12.4023 10.0867 12.269 10.3239 12.0318L8.9097 10.6176C9.0476 10.4797 9.23463 10.4023 9.42965 10.4023V12.4023ZM10.3239 12.0318C10.5611 11.7947 10.6943 11.473 10.6943 11.1376H8.69434C8.69434 10.9426 8.77181 10.7555 8.9097 10.6176L10.3239 12.0318ZM10.6943 11.1376V0.723184H8.69434V11.1376H10.6943ZM10.6943 0.723041C10.6943 0.387644 10.561 0.0660035 10.3238 -0.171138L8.90973 1.24318C8.77184 1.10531 8.69436 0.918317 8.69434 0.723326L10.6943 0.723041ZM10.3238 -0.171138C10.0867 -0.408282 9.76501 -0.541504 9.42961 -0.541504V1.4585C9.23462 1.4585 9.04762 1.38104 8.90973 1.24318L10.3238 -0.171138ZM1.47371 1.98787H5.05463V-0.012129H1.47371V1.98787ZM4.05463 0.987871V10.8729H6.05463V0.987871H4.05463ZM5.05463 9.87289H1.47371V11.8729H5.05463V9.87289ZM2.47371 10.8729V0.987871H0.473711V10.8729H2.47371ZM9.16492 9.87289H5.584V11.8729H9.16492V9.87289ZM6.584 10.8729V0.987871H4.584V10.8729H6.584ZM5.584 1.98787H9.16492V-0.012129H5.584V1.98787ZM8.16492 0.987871V10.8729H10.1649V0.987871H8.16492Z" fill="#E1E1E1" mask="url(#path-1-inside-1_2316_873)"/>
<path d="M4.0205 7.60252C4.19362 7.60252 4.33396 7.46217 4.33396 7.28905C4.33396 7.11593 4.19362 6.97559 4.0205 6.97559C3.84737 6.97559 3.70703 7.11593 3.70703 7.28905C3.70703 7.46217 3.84737 7.60252 4.0205 7.60252Z" fill="white"/>
<path d="M6.61815 7.60252C6.79128 7.60252 6.93162 7.46217 6.93162 7.28905C6.93162 7.11593 6.79128 6.97559 6.61815 6.97559C6.44503 6.97559 6.30469 7.11593 6.30469 7.28905C6.30469 7.46217 6.44503 7.60252 6.61815 7.60252Z" fill="white"/>
</svg>
