<svg width="14" height="13" viewBox="0 0 14 13" fill="none" xmlns="http://www.w3.org/2000/svg">
<path d="M13.0134 12.1481C13.0134 12.1481 13.0134 12.1477 13.0136 12.1469L13.0134 12.1481ZM13.405 12.1481C13.405 12.1481 13.4049 12.1477 13.4049 12.1469L13.405 12.1481ZM13.405 3.76944C13.4051 3.76943 13.405 3.76983 13.4049 3.77061L13.405 3.76944ZM13.0134 3.76944C13.0135 3.7694 13.0135 3.76978 13.0136 3.77061L13.0134 3.76944ZM0.888914 0.684905C0.888941 0.684912 0.88891 0.685311 0.88874 0.686079L0.888914 0.684905ZM0.497322 0.684905C0.497349 0.684898 0.497434 0.685282 0.497495 0.686079L0.497322 0.684905ZM0.497495 12.1469C0.497433 12.1477 0.497348 12.1481 0.497321 12.1481L0.497495 12.1469ZM0.888741 12.1469C0.888911 12.1477 0.888942 12.1481 0.888915 12.1481L0.888741 12.1469Z" fill="white" stroke="#E1E1E1"/>
<path d="M1.56324 5.18874H4.70899C4.87704 5.18874 5.01343 5.0111 5.01343 4.79216C5.01235 3.64577 4.29927 2.71671 3.41922 2.71533H1.56324C1.39515 2.71533 1.25879 2.893 1.25879 3.11191V4.79216C1.25879 5.0111 1.39515 5.18874 1.56324 5.18874ZM1.86768 3.5085H3.41922C3.62727 3.50885 3.82991 3.59481 3.99822 3.75412C4.16653 3.91342 4.2919 4.13793 4.35643 4.39557H1.86771L1.86768 3.5085Z" fill="white"/>
</svg>
