<svg width="14" height="12" viewBox="0 0 14 12" fill="none" xmlns="http://www.w3.org/2000/svg">
<path d="M1.13056 11.8562L1.21048 11.6631L1.13056 11.8562ZM1.13056 11.8562C1.15592 11.8667 1.1831 11.8721 1.21056 11.8721L1.00154 11.1179V11.454V11.663C1.00153 11.6905 1.00693 11.7177 1.01743 11.743C1.02793 11.7684 1.04332 11.7915 1.06274 11.8109C1.08215 11.8303 1.10519 11.8457 1.13056 11.8562ZM10.7458 11.8562L10.8258 11.6631L10.8258 11.6631L10.7458 11.8562ZM10.7458 11.8562C10.7712 11.8667 10.7984 11.8721 10.8258 11.8721L10.6168 11.1179V11.454V11.663C10.6168 11.6905 10.6222 11.7177 10.6327 11.743C10.6432 11.7684 10.6586 11.7915 10.678 11.8109C10.6974 11.8303 10.7205 11.8457 10.7458 11.8562Z" fill="white" stroke="#E1E1E1"/>
<path d="M5.39111 1.83887H8.31752V2.25693H5.39111V1.83887ZM5.39111 5.18333H8.31752V5.6014H5.39111V5.18333ZM5.39111 8.52778H8.31752V8.94584H5.39111V8.52778Z" fill="white"/>
</svg>
