<svg width="20" height="15" viewBox="0 0 20 15" fill="none" xmlns="http://www.w3.org/2000/svg">
<path d="M13.4678 0.378463C13.402 0.311501 13.3236 0.258312 13.2371 0.222002C13.1506 0.185693 13.0577 0.166992 12.9638 0.166992C12.87 0.166992 12.7771 0.185693 12.6905 0.222002C12.604 0.258312 12.5256 0.311501 12.4598 0.378463C12.3289 0.511517 12.2556 0.690695 12.2556 0.877352C12.2556 1.06401 12.3289 1.24319 12.4598 1.37624L17.5707 6.48707H0.705631C0.612796 6.48665 0.520799 6.50463 0.434958 6.53999C0.349116 6.57534 0.271133 6.62735 0.205518 6.69303C0.139903 6.7587 0.0879565 6.83673 0.0526823 6.92261C0.0174081 7.00848 -0.000494208 7.10049 1.03767e-05 7.19333C1.03767e-05 7.58647 0.312491 7.90911 0.705631 7.90911H17.5707L12.4598 13.0104C12.1874 13.2924 12.1874 13.7465 12.4598 14.0184C12.5256 14.0853 12.604 14.1385 12.6905 14.1748C12.7771 14.2111 12.87 14.2298 12.9638 14.2298C13.0577 14.2298 13.1506 14.2111 13.2371 14.1748C13.3236 14.1385 13.402 14.0853 13.4678 14.0184L19.7885 7.69761C19.8554 7.63288 19.9086 7.55536 19.9449 7.46966C19.9813 7.38395 20 7.29181 20 7.19873C20 7.10564 19.9813 7.0135 19.9449 6.92779C19.9086 6.84209 19.8554 6.76457 19.7885 6.69984L13.4678 0.378463Z" fill="url(#paint0_linear_2316_3791)"/>
<defs>
<linearGradient id="paint0_linear_2316_3791" x1="-1.41722e-08" y1="10.1648" x2="20.0797" y2="9.86303" gradientUnits="userSpaceOnUse">
<stop stop-color="#E3873E"/>
<stop offset="1" stop-color="#D4732E"/>
</linearGradient>
</defs>
</svg>
