<svg width="40" height="40" viewBox="0 0 40 40" fill="none" xmlns="http://www.w3.org/2000/svg">
<g clip-path="url(#clip0_157_1369)">
<path d="M26.6668 21.6666H13.3335C11.4952 21.6666 10.0002 23.1616 10.0002 25V28.3333C10.0002 30.1716 11.4952 31.6666 13.3335 31.6666H26.6668C28.5052 31.6666 30.0002 30.1716 30.0002 28.3333V25C30.0002 23.1616 28.5052 21.6666 26.6668 21.6666ZM28.3335 28.3333C28.3335 29.2516 27.5852 30 26.6668 30H13.3335C12.4152 30 11.6668 29.2516 11.6668 28.3333V25C11.6668 24.0816 12.4152 23.3333 13.3335 23.3333H26.6668C27.5852 23.3333 28.3335 24.0816 28.3335 25V28.3333ZM10.0002 15.8333C10.0002 15.6123 10.088 15.4003 10.2442 15.2441C10.4005 15.0878 10.6125 15 10.8335 15H17.5002C17.7212 15 17.9331 15.0878 18.0894 15.2441C18.2457 15.4003 18.3335 15.6123 18.3335 15.8333C18.3335 16.0543 18.2457 16.2663 18.0894 16.4226C17.9331 16.5788 17.7212 16.6666 17.5002 16.6666H10.8335C10.6125 16.6666 10.4005 16.5788 10.2442 16.4226C10.088 16.2663 10.0002 16.0543 10.0002 15.8333ZM10.0002 9.16664C10.0002 8.94563 10.088 8.73367 10.2442 8.57739C10.4005 8.42111 10.6125 8.33331 10.8335 8.33331H17.5002C17.7212 8.33331 17.9331 8.42111 18.0894 8.57739C18.2457 8.73367 18.3335 8.94563 18.3335 9.16664C18.3335 9.38766 18.2457 9.59962 18.0894 9.7559C17.9331 9.91218 17.7212 9.99998 17.5002 9.99998H10.8335C10.6125 9.99998 10.4005 9.91218 10.2442 9.7559C10.088 9.59962 10.0002 9.38766 10.0002 9.16664ZM33.4935 8.98164L27.6852 3.17331C26.6816 2.16414 25.4879 1.36404 24.173 0.819332C22.8582 0.274627 21.4484 -0.00386478 20.0252 -2.17988e-05H10.8335C8.84505 0.00218391 6.93868 0.793068 5.53263 2.19911C4.12659 3.60516 3.3357 5.51153 3.3335 7.49998V32.5C3.3335 36.635 6.6985 40 10.8335 40H29.1668C33.3018 40 36.6668 36.635 36.6668 32.5V16.6416C36.6709 15.2184 36.3924 13.8085 35.8477 12.4937C35.303 11.1788 34.5028 9.98507 33.4935 8.98164ZM32.3152 10.16C33.2318 11.0766 33.9135 12.16 34.3668 13.3333H25.8318C24.4535 13.3333 23.3318 12.2116 23.3318 10.8333V2.29831C24.5208 2.75404 25.6016 3.45281 26.5052 4.34998L32.3135 10.1583L32.3152 10.16ZM35.0002 32.5C35.0002 35.7166 32.3835 38.3333 29.1668 38.3333H10.8335C7.61683 38.3333 5.00016 35.7166 5.00016 32.5V7.49998C5.00016 4.28331 7.61683 1.66664 10.8335 1.66664H20.0252C20.5835 1.66664 21.1302 1.72998 21.6668 1.82664V10.8333C21.6668 13.13 23.5368 15 25.8335 15H34.8402C34.9368 15.5383 35.0002 16.085 35.0002 16.6416V32.5Z" fill="#FF6408"/>
</g>
<defs>
<clipPath id="clip0_157_1369">
<rect width="40" height="40" fill="white"/>
</clipPath>
</defs>
</svg>
