<svg width="40" height="40" viewBox="0 0 40 40" fill="none" xmlns="http://www.w3.org/2000/svg">
<g clip-path="url(#clip0_157_1366)">
<path d="M40 9.09998C40 5.88332 37.3833 3.26665 34.1667 3.26665C30.95 3.26665 28.3333 5.88332 28.3333 9.09998C28.3351 10.5022 28.8412 11.857 29.7592 12.9169C30.6771 13.9769 31.9458 14.6713 33.3333 14.8733V30.7667C33.3333 32.145 32.2117 33.2667 30.8333 33.2667H20.5717L25.665 28.1733L24.4867 26.995L19.06 32.4217C18.5917 32.89 18.3333 33.5133 18.3333 34.1767C18.3333 34.84 18.5917 35.4617 19.06 35.93L24.4867 41.3567L25.665 40.1783L20.4217 34.935H30.8333C33.13 34.935 35 33.065 35 30.7683V14.8733C36.3876 14.6713 37.6562 13.9769 38.5742 12.9169C39.4921 11.857 39.9982 10.5022 40 9.09998ZM34.1667 13.2667C31.87 13.2667 30 11.3967 30 9.09998C30 6.80332 31.87 4.93332 34.1667 4.93332C36.4633 4.93332 38.3333 6.80332 38.3333 9.09998C38.3333 11.3967 36.4633 13.2667 34.1667 13.2667ZM20.94 7.34498L15.5133 1.91998L14.335 3.09832L19.505 8.26665H9.16667C8.062 8.26797 7.00296 8.70739 6.22185 9.4885C5.44073 10.2696 5.00132 11.3287 5 12.4333V28.3267C3.61242 28.5287 2.34381 29.2231 1.42583 30.283C0.507857 31.343 0.00177204 32.6978 0 34.1C0 37.3167 2.61667 39.9333 5.83333 39.9333C9.05 39.9333 11.6667 37.3167 11.6667 34.1C11.6649 32.6978 11.1588 31.343 10.2408 30.283C9.32286 29.2231 8.05424 28.5287 6.66667 28.3267V12.4333C6.66667 11.055 7.78833 9.93332 9.16667 9.93332H19.505L14.335 15.1017L15.5133 16.28L20.94 10.855C21.405 10.3896 21.6662 9.75868 21.6662 9.10082C21.6662 8.44295 21.405 7.81033 20.94 7.34498ZM10 34.1C10 36.3967 8.13 38.2667 5.83333 38.2667C3.53667 38.2667 1.66667 36.3967 1.66667 34.1C1.66667 31.8033 3.53667 29.9333 5.83333 29.9333C8.13 29.9333 10 31.8033 10 34.1Z" fill="#FF6408"/>
</g>
<defs>
<clipPath id="clip0_157_1366">
<rect width="40" height="40" fill="white"/>
</clipPath>
</defs>
</svg>
