<svg width="40" height="40" viewBox="0 0 40 40" fill="none" xmlns="http://www.w3.org/2000/svg">
<path d="M32.123 36.8H8.53267C6.65634 36.7979 4.85746 36.0482 3.5307 34.7152C2.20394 33.3823 1.45765 31.5751 1.45557 29.69L1.45557 12.31C1.45557 8.38998 4.63083 5.19995 8.53267 5.19995H32.123C36.0248 5.19995 39.2001 8.38998 39.2001 12.31V29.69C39.2001 33.61 36.0248 36.8 32.123 36.8ZM8.53267 6.77995C5.49738 6.77995 3.02826 9.26056 3.02826 12.31V29.69C3.02826 32.7394 5.49738 35.22 8.53267 35.22H32.123C35.1583 35.22 37.6274 32.7394 37.6274 29.69V12.31C37.6274 9.26056 35.1583 6.77995 32.123 6.77995H8.53267ZM30.5503 22.58H22.6869C21.3863 22.58 20.3278 21.5166 20.3278 20.21V15.47C20.3278 14.1633 21.3863 13.1 22.6869 13.1H30.5503C31.8509 13.1 32.9093 14.1633 32.9093 15.47V20.21C32.9093 21.5166 31.8509 22.58 30.5503 22.58ZM22.6869 14.68C22.4783 14.68 22.2783 14.7632 22.1308 14.9114C21.9834 15.0595 21.9005 15.2605 21.9005 15.47V20.21C21.9005 20.4195 21.9834 20.6204 22.1308 20.7686C22.2783 20.9168 22.4783 21 22.6869 21H30.5503C30.7589 21 30.9589 20.9168 31.1063 20.7686C31.2538 20.6204 31.3367 20.4195 31.3367 20.21V15.47C31.3367 15.2605 31.2538 15.0595 31.1063 14.9114C30.9589 14.7632 30.7589 14.68 30.5503 14.68H22.6869ZM17.1825 21.79C17.1825 21.5805 17.0996 21.3795 16.9521 21.2314C16.8047 21.0832 16.6047 21 16.3961 21H8.53267C8.32412 21 8.12411 21.0832 7.97664 21.2314C7.82917 21.3795 7.74632 21.5805 7.74632 21.79C7.74632 21.9995 7.82917 22.2005 7.97664 22.3486C8.12411 22.4968 8.32412 22.58 8.53267 22.58H16.3961C16.6047 22.58 16.8047 22.4968 16.9521 22.3486C17.0996 22.2005 17.1825 21.9995 17.1825 21.79ZM32.9093 28.11C32.9093 27.9005 32.8265 27.6995 32.679 27.5514C32.5316 27.4032 32.3316 27.32 32.123 27.32H8.53267C8.32412 27.32 8.12411 27.4032 7.97664 27.5514C7.82917 27.6995 7.74632 27.9005 7.74632 28.11C7.74632 28.3195 7.82917 28.5205 7.97664 28.6686C8.12411 28.8168 8.32412 28.9 8.53267 28.9H32.123C32.3316 28.9 32.5316 28.8168 32.679 28.6686C32.8265 28.5205 32.9093 28.3195 32.9093 28.11Z" fill="#FF6408"/>
</svg>
