<svg width="16" height="17" viewBox="0 0 16 17" fill="none" xmlns="http://www.w3.org/2000/svg">
<path d="M13.3332 7.16732C13.3332 11.1673 7.99984 15.1673 7.99984 15.1673C7.99984 15.1673 2.6665 11.1673 2.6665 7.16732C2.6665 5.75283 3.22841 4.39628 4.2286 3.39608C5.2288 2.39589 6.58535 1.83398 7.99984 1.83398C9.41433 1.83398 10.7709 2.39589 11.7711 3.39608C12.7713 4.39628 13.3332 5.75283 13.3332 7.16732Z" stroke="#B4B4B4" stroke-linecap="round" stroke-linejoin="round"/>
<path d="M8 9.16602C9.10457 9.16602 10 8.27059 10 7.16602C10 6.06145 9.10457 5.16602 8 5.16602C6.89543 5.16602 6 6.06145 6 7.16602C6 8.27059 6.89543 9.16602 8 9.16602Z" stroke="#B4B4B4" stroke-linecap="round" stroke-linejoin="round"/>
</svg>
