<svg width="15" height="20" viewBox="0 0 15 20" fill="none" xmlns="http://www.w3.org/2000/svg">
<path d="M0.878463 6.53222C0.811501 6.59796 0.758312 6.67639 0.722002 6.76292C0.685693 6.84945 0.666992 6.94235 0.666992 7.03619C0.666992 7.13003 0.685693 7.22293 0.722002 7.30946C0.758312 7.39599 0.811501 7.47442 0.878463 7.54016C1.01152 7.67107 1.1907 7.74443 1.37735 7.74443C1.56401 7.74443 1.74319 7.67107 1.87624 7.54016L6.98707 2.42933L6.98707 19.2944C6.98665 19.3872 7.00463 19.4792 7.03999 19.565C7.07534 19.6509 7.12735 19.7289 7.19303 19.7945C7.2587 19.8601 7.33673 19.912 7.42261 19.9473C7.50848 19.9826 7.60049 20.0005 7.69333 20C8.08647 20 8.40911 19.6875 8.40911 19.2944V2.42933L13.5104 7.54016C13.7924 7.81262 14.2465 7.81262 14.5184 7.54016C14.5853 7.47442 14.6385 7.39599 14.6748 7.30946C14.7111 7.22293 14.7298 7.13003 14.7298 7.03619C14.7298 6.94235 14.7111 6.84945 14.6748 6.76292C14.6385 6.67639 14.5853 6.59796 14.5184 6.53222L8.19761 0.211481C8.13288 0.144581 8.05536 0.0913849 7.96966 0.0550537C7.88395 0.0187225 7.79181 0 7.69873 0C7.60564 0 7.5135 0.0187225 7.42779 0.0550537C7.34209 0.0913849 7.26457 0.144581 7.19984 0.211481L0.878463 6.53222Z" fill="white"/>
</svg>
