<svg width="32" height="32" viewBox="0 0 32 32" fill="none" xmlns="http://www.w3.org/2000/svg">
<g clip-path="url(#clip0_2306_2643)">
<circle cx="16" cy="16" r="16" fill="#2787F5"/>
<path d="M8.97559 14.6799C8.97559 11.5936 8.97559 10.0504 10.2083 9.0916C11.441 8.13281 13.4251 8.13281 17.3932 8.13281H18.1252C22.0933 8.13281 24.0774 8.13281 25.3101 9.0916C26.5429 10.0504 26.5429 11.5936 26.5429 14.6799V15.2492C26.5429 18.3355 26.5429 19.8787 25.3101 20.8375C24.0774 21.7963 22.0934 21.7963 18.1252 21.7963H17.3933C13.4252 21.7963 11.4411 21.7963 10.2084 20.8375C8.97559 19.8787 8.97559 18.3355 8.97559 15.2492V14.6799Z" fill="#2787F5"/>
<path fill-rule="evenodd" clip-rule="evenodd" d="M11.7205 12.9961H10.4393C10.0732 12.9961 10 13.1684 10 13.3584C10 13.6977 10.4344 15.3804 12.0225 17.606C13.0813 19.1259 14.573 19.9498 15.9303 19.9498C16.7448 19.9498 16.8455 19.7668 16.8455 19.4516V18.3029C16.8455 17.9369 16.9227 17.8638 17.1805 17.8638C17.3706 17.8638 17.6964 17.9588 18.4565 18.6916C19.3252 19.5602 19.4684 19.9498 19.9571 19.9498H21.2383C21.6044 19.9498 21.7874 19.7668 21.6818 19.4057C21.5663 19.0458 21.1515 18.5236 20.6011 17.9046C20.3025 17.5517 19.8546 17.1718 19.7188 16.9817C19.5288 16.7375 19.5831 16.6289 19.7188 16.4118C19.7188 16.4118 21.2799 14.2133 21.4427 13.467C21.5242 13.1955 21.4427 12.9961 21.0553 12.9961H19.774C19.4483 12.9961 19.298 13.1684 19.2166 13.3584C19.2166 13.3584 18.5651 14.9461 17.6421 15.9775C17.3434 16.2761 17.2077 16.3711 17.0448 16.3711C16.9633 16.3711 16.8455 16.2761 16.8455 16.0047V13.467C16.8455 13.1413 16.7509 12.9961 16.4794 12.9961H14.466C14.2624 12.9961 14.14 13.1472 14.14 13.2905C14.14 13.5992 14.6015 13.6705 14.6491 14.539V16.4254C14.6491 16.8389 14.5743 16.9139 14.4115 16.9139C13.9771 16.9139 12.9205 15.319 12.2939 13.4941C12.1712 13.1394 12.048 12.9961 11.7205 12.9961Z" fill="white"/>
</g>
<defs>
<clipPath id="clip0_2306_2643">
<rect width="32" height="32" fill="white"/>
</clipPath>
</defs>
</svg>
