<svg width="32" height="32" viewBox="0 0 32 32" fill="none" xmlns="http://www.w3.org/2000/svg">
<g clip-path="url(#clip0_2306_2648)">
<rect width="32" height="32" rx="16" fill="#31B939"/>
<path d="M16.0003 8.72656C12.186 8.72656 8.72754 12.185 8.72754 15.9993C8.72754 17.5266 9.34608 18.4902 10.1821 19.6357L9.45481 22.5447L11.6366 21.8175C12.7098 22.5007 14.6337 22.5447 16.0003 22.5447C19.8145 22.5447 22.5457 19.8136 22.5457 15.9993C22.5457 12.185 19.8145 8.72656 16.0003 8.72656ZM18.9094 19.6357C17.6554 20.1381 16.1816 19.4231 14.5457 18.1811C12.9099 16.9392 11.709 15.1157 11.6366 13.8175C11.5643 12.5193 12.5164 11.6316 13.0912 11.6357C13.6659 11.6397 14.5377 13.5361 14.5457 13.8175C14.5538 14.1028 13.8466 15.0309 13.8184 15.272C13.7903 15.5132 14.851 16.405 15.273 16.7266C15.691 17.0441 16.2814 17.5101 16.7275 17.4538C17.1697 17.3935 17.1735 16.7828 17.4548 16.7266C17.7362 16.6703 19.4839 17.2569 19.6366 17.4538C19.7894 17.6548 20.0227 19.1935 18.9094 19.6357Z" fill="white"/>
</g>
<defs>
<clipPath id="clip0_2306_2648">
<rect width="32" height="32" fill="white"/>
</clipPath>
</defs>
</svg>
