<svg width="48" height="48" viewBox="0 0 48 48" fill="none" xmlns="http://www.w3.org/2000/svg">
<g clip-path="url(#clip0_2316_4035)">
<path d="M32 26H16C13.794 26 12 27.794 12 30V34C12 36.206 13.794 38 16 38H32C34.206 38 36 36.206 36 34V30C36 27.794 34.206 26 32 26ZM34 34C34 35.102 33.102 36 32 36H16C14.898 36 14 35.102 14 34V30C14 28.898 14.898 28 16 28H32C33.102 28 34 28.898 34 30V34ZM12 19C12 18.7348 12.1054 18.4805 12.2929 18.2929C12.4804 18.1054 12.7348 18 13 18H21C21.2652 18 21.5196 18.1054 21.7071 18.2929C21.8946 18.4805 22 18.7348 22 19C22 19.2653 21.8946 19.5196 21.7071 19.7072C21.5196 19.8947 21.2652 20 21 20H13C12.7348 20 12.4804 19.8947 12.2929 19.7072C12.1054 19.5196 12 19.2653 12 19ZM12 11C12 10.7348 12.1054 10.4805 12.2929 10.2929C12.4804 10.1054 12.7348 10 13 10H21C21.2652 10 21.5196 10.1054 21.7071 10.2929C21.8946 10.4805 22 10.7348 22 11C22 11.2653 21.8946 11.5196 21.7071 11.7072C21.5196 11.8947 21.2652 12 21 12H13C12.7348 12 12.4804 11.8947 12.2929 11.7072C12.1054 11.5196 12 11.2653 12 11ZM40.192 10.778L33.222 3.80805C32.0178 2.59704 30.5853 1.63692 29.0075 0.983272C27.4296 0.329626 25.7378 -0.00456449 24.03 4.70837e-05H13C10.6139 0.00269394 8.32622 0.951755 6.63896 2.63901C4.95171 4.32626 4.00265 6.61391 4 9.00005V39C4 43.962 8.038 48 13 48H35C39.962 48 44 43.962 44 39V19.97C44.0048 18.2622 43.6707 16.5703 43.0171 14.9925C42.3634 13.4146 41.4032 11.9822 40.192 10.778ZM38.778 12.192C39.878 13.292 40.696 14.592 41.24 16H30.998C29.344 16 27.998 14.654 27.998 13V2.75805C29.4248 3.30492 30.7217 4.14345 31.806 5.22005L38.776 12.19L38.778 12.192ZM42 39C42 42.86 38.86 46 35 46H13C9.14 46 6 42.86 6 39V9.00005C6 5.14005 9.14 2.00005 13 2.00005H24.03C24.7 2.00005 25.356 2.07605 26 2.19205V13C26 15.756 28.244 18 31 18H41.808C41.924 18.646 42 19.302 42 19.97V39Z" fill="url(#paint0_linear_2316_4035)"/>
</g>
<defs>
<linearGradient id="paint0_linear_2316_4035" x1="4" y1="34.125" x2="44.1653" y2="33.7714" gradientUnits="userSpaceOnUse">
<stop stop-color="#FF6408"/>
<stop offset="1" stop-color="#FF8F3B"/>
</linearGradient>
<clipPath id="clip0_2316_4035">
<rect width="48" height="48" fill="white"/>
</clipPath>
</defs>
</svg>
