<svg width="48" height="48" viewBox="0 0 48 48" fill="none" xmlns="http://www.w3.org/2000/svg">
<path d="M40.0001 40.0001C43.5347 40.0001 46.4001 37.1347 46.4001 33.6001V27.2001C46.4001 23.6655 43.5347 20.8001 40.0001 20.8001C38.2328 20.8001 36.8001 22.2328 36.8001 24.0001V36.8001C36.8001 38.5674 38.2328 40.0001 40.0001 40.0001ZM40.0001 40.0001C40.0001 43.5347 37.1347 46.4001 33.6001 46.4001H25.6001M46.4001 32.0001V24.0001C46.4001 11.6289 36.3713 1.6001 24.0001 1.6001C11.6289 1.6001 1.6001 11.6289 1.6001 24.0001V32.0001M8.0001 40.0001C9.76741 40.0001 11.2001 38.5674 11.2001 36.8001V24.0001C11.2001 22.2328 9.76741 20.8001 8.0001 20.8001C4.46548 20.8001 1.6001 23.6655 1.6001 27.2001V33.6001C1.6001 37.1347 4.46548 40.0001 8.0001 40.0001Z" stroke="url(#paint0_linear_2316_4040)" stroke-width="1.6"/>
<defs>
<linearGradient id="paint0_linear_2316_4040" x1="1.6001" y1="33.4501" x2="46.5837" y2="32.9748" gradientUnits="userSpaceOnUse">
<stop stop-color="#FF6408"/>
<stop offset="1" stop-color="#FF8F3B"/>
</linearGradient>
</defs>
</svg>
