<svg width="48" height="48" viewBox="0 0 48 48" fill="none" xmlns="http://www.w3.org/2000/svg">
<path d="M29.9736 21.792C30.2087 21.5165 30.594 21.3301 31.2008 21.2492C32.3639 21.0941 32.4802 21.3267 33.1006 21.792C33.7209 22.2572 34.4964 25.359 34.4576 27.0649C34.4188 28.7709 29.3398 35.9824 28.4868 37.6108C27.8044 38.9135 27.2202 41.7464 27.0135 43H16.2738C15.7826 40.958 14.5911 36.3468 13.7536 34.2377C12.7068 31.6012 11.7763 30.0116 12.0477 28.6158M29.9736 21.792C29.758 22.0445 29.6685 22.3719 29.6499 22.7613C29.6112 23.5755 30.0376 25.8242 29.6499 26.4446C29.2622 27.0649 27.3624 29.5463 26.3931 29.7402C25.4238 29.934 22.8649 30.1666 21.9732 29.7402C21.0814 29.3137 18.949 27.3363 19.802 25.7855C20.6549 24.2346 21.5854 22.0634 22.4384 21.792C23.2914 21.5206 24.9973 21.1717 25.5789 21.4818C26.1605 21.792 28.4092 22.7613 28.7194 22.7613C29.0296 22.7613 29.6769 22.5286 29.9736 21.792ZM29.9736 21.792C30.2405 21.4689 30.7047 20.6832 30.4256 20.1248C30.0766 19.427 27.7503 18.0312 26.1219 17.5271C24.4935 17.0231 21.5081 17.2557 19.802 18.0312C19.5968 18.1244 19.3329 18.328 19.0267 18.6166M12.0477 28.6158C12.2864 27.3878 16.7864 20.7282 19.0267 18.6166M12.0477 28.6158C12.1927 28.0699 12.3486 27.4834 12.5131 26.8648M19.0267 18.6166L21.6541 7.6467C21.8092 7.22043 22.0418 5.51448 20.3746 5.08119C18.7083 4.64811 18.3198 6.05737 18.0484 6.71649C17.9746 6.89565 17.666 7.6558 16.9451 10.3156M16.9451 10.3156L16.5841 6.78742C16.4937 6.14125 15.8864 4.89542 14.1803 5.0815C12.4742 5.26758 12.5131 6.9878 12.5131 8.14442V26.8648M16.9451 10.3156C15.6999 14.9099 13.8301 21.9134 12.5131 26.8648" stroke="url(#paint0_linear_2316_4045)" stroke-width="1.6"/>
<defs>
<linearGradient id="paint0_linear_2316_4045" x1="12" y1="32.0156" x2="34.5527" y2="31.8748" gradientUnits="userSpaceOnUse">
<stop stop-color="#FF6408"/>
<stop offset="1" stop-color="#FF8F3B"/>
</linearGradient>
</defs>
</svg>
